<svg width="25" height="25" viewBox="0 0 25 25" fill="none" xmlns="http://www.w3.org/2000/svg">
<g clip-path="url(#clip0_6_60)">
<path d="M22.3929 8.72998C18.2059 8.73098 17.1439 11.095 16.9729 12.7C16.7789 14.502 18.0259 16.27 21.0999 16.27C22.3939 16.27 23.2399 16.045 23.5399 15.95C23.5772 15.9383 23.6106 15.9166 23.6365 15.8874C23.6624 15.8581 23.6798 15.8224 23.6869 15.784L23.8599 14.874C23.8659 14.8427 23.8637 14.8104 23.8534 14.7803C23.8432 14.7502 23.8253 14.7232 23.8015 14.702C23.7777 14.6809 23.7489 14.6662 23.7178 14.6596C23.6866 14.6529 23.6543 14.6544 23.6239 14.664C23.2879 14.77 22.6939 14.916 21.9389 14.916C20.4699 14.916 19.4089 14.034 19.5439 12.516C19.6739 11.046 20.6649 9.92598 22.0289 9.92598C22.8489 9.92598 23.2119 10.356 23.1849 10.929V10.962C23.1837 10.9867 23.1875 11.0115 23.1961 11.0347C23.2047 11.0579 23.2179 11.0792 23.2349 11.0972C23.2518 11.1152 23.2723 11.1297 23.295 11.1396C23.3177 11.1495 23.3422 11.1547 23.3669 11.155H23.9239C24.0099 11.155 24.0839 11.095 24.1039 11.012L24.4939 9.25198C24.5063 9.19835 24.4977 9.14202 24.4698 9.09458C24.4419 9.04714 24.3968 9.01221 24.3439 8.99698C23.7092 8.8196 23.053 8.7301 22.3939 8.73098L22.3929 8.72998ZM2.23594 8.84598C2.19056 8.846 2.14654 8.86146 2.1111 8.88981C2.07567 8.91816 2.05092 8.95771 2.04094 9.00198L1.93294 9.48598C1.9225 9.5336 1.92998 9.58339 1.95397 9.62583C1.97796 9.66827 2.01676 9.70037 2.06294 9.71598L2.09594 9.72598C2.30394 9.80798 2.54594 9.99198 2.44394 10.474L1.65194 14.094C1.44494 15.081 1.10994 15.284 0.791941 15.32H0.781941C0.739752 15.3241 0.69997 15.3416 0.668336 15.3698C0.636702 15.398 0.614852 15.4355 0.605941 15.477L0.503941 15.941C0.497823 15.969 0.498046 15.998 0.504592 16.0259C0.511138 16.0537 0.523842 16.0798 0.541773 16.1022C0.559704 16.1245 0.582407 16.1425 0.608218 16.155C0.634029 16.1674 0.662294 16.1739 0.690941 16.174H4.17794C4.26294 16.174 4.33694 16.114 4.35494 16.032L4.47494 15.489C4.48417 15.4464 4.47798 15.4019 4.45747 15.3634C4.43695 15.325 4.40346 15.295 4.36294 15.279L4.34094 15.269C4.16394 15.199 3.92294 15.045 3.98494 14.759L4.38994 12.909C5.77894 15.444 6.23794 16.175 7.90394 16.174H9.40994C9.45121 16.174 9.49126 16.16 9.52346 16.1342C9.55565 16.1083 9.57805 16.0723 9.58694 16.032L9.69194 15.562C9.69832 15.5338 9.69836 15.5045 9.69203 15.4763C9.68571 15.4481 9.6732 15.4216 9.6554 15.3989C9.63759 15.3761 9.61495 15.3575 9.5891 15.3446C9.56325 15.3316 9.53485 15.3246 9.50594 15.324C9.12994 15.318 8.94594 15.231 8.57094 14.749L6.63894 12.135L9.14894 10.047C9.48594 9.78298 9.89694 9.70898 10.1249 9.67898L10.1469 9.67698C10.1858 9.67327 10.2226 9.65733 10.2518 9.63146C10.2811 9.6056 10.3015 9.57112 10.3099 9.53298L10.4129 9.06898C10.4188 9.04212 10.4185 9.01429 10.4122 8.98754C10.4058 8.96079 10.3936 8.9358 10.3763 8.91441C10.359 8.89302 10.3372 8.87577 10.3124 8.86393C10.2876 8.85209 10.2604 8.84595 10.2329 8.84598H7.21294C7.16799 8.84622 7.12445 8.86168 7.08941 8.88982C7.05436 8.91797 7.02988 8.95715 7.01994 9.00098L6.91794 9.46098C6.90698 9.51034 6.91512 9.56202 6.94072 9.60562C6.96632 9.64922 7.00749 9.68151 7.05594 9.69598C7.23394 9.76498 7.27294 9.93598 7.11894 10.062L4.54594 12.2L4.98594 10.186C5.01583 10.0701 5.07563 9.96418 5.15934 9.87872C5.24305 9.79325 5.34775 9.73127 5.46294 9.69898L5.48794 9.69098C5.52139 9.68054 5.5515 9.66144 5.5752 9.63563C5.59891 9.60982 5.61538 9.5782 5.62294 9.54398L5.72894 9.06698C5.73478 9.04052 5.7346 9.01308 5.72842 8.98669C5.72224 8.9603 5.71021 8.93564 5.69322 8.91452C5.67623 8.8934 5.65471 8.87637 5.63026 8.86468C5.60581 8.85299 5.57904 8.84694 5.55194 8.84698L2.23594 8.84598ZM11.1159 8.84598C11.0707 8.84623 11.0269 8.86179 10.9917 8.89012C10.9565 8.91845 10.9319 8.95788 10.9219 9.00198L10.8149 9.48498C10.8047 9.53037 10.8114 9.57794 10.8339 9.61867C10.8564 9.6594 10.8931 9.69047 10.9369 9.70598L10.9569 9.71398C11.1609 9.79098 11.4439 9.98798 11.3209 10.472L10.1109 15.952C10.1049 15.9786 10.105 16.0063 10.1112 16.033C10.1173 16.0596 10.1294 16.0845 10.1465 16.1058C10.1636 16.1272 10.1853 16.1444 10.2099 16.1562C10.2346 16.168 10.2616 16.174 10.2889 16.174H13.0659C13.1519 16.174 13.2259 16.114 13.2449 16.031L13.3649 15.484C13.3735 15.445 13.3685 15.4043 13.3507 15.3686C13.3328 15.3329 13.3033 15.3045 13.2669 15.288C13.2579 15.2837 13.2489 15.2794 13.2399 15.275C13.0639 15.189 12.8019 14.99 12.8899 14.605C12.8989 14.555 13.1599 13.365 13.1599 13.365H15.5219C15.6079 13.365 15.6819 13.305 15.7019 13.222L15.9229 12.222C15.9291 12.195 15.9291 12.167 15.923 12.1401C15.9168 12.1131 15.9046 12.0879 15.8872 12.0663C15.8699 12.0448 15.8479 12.0274 15.8229 12.0156C15.7979 12.0038 15.7706 11.9977 15.7429 11.998H13.4629L13.8899 10.058L15.4819 10.055C15.9969 10.055 16.1539 10.325 16.1239 10.783L16.1219 10.807C16.119 10.8328 16.1215 10.8589 16.1294 10.8836C16.1372 10.9084 16.1502 10.9312 16.1675 10.9505C16.1848 10.9699 16.2059 10.9854 16.2296 10.996C16.2533 11.0065 16.279 11.012 16.3049 11.012H16.8919C16.9779 11.012 17.0519 10.952 17.0699 10.868L17.4699 9.06798C17.4756 9.04119 17.4752 9.01347 17.4688 8.98684C17.4624 8.96022 17.4501 8.93537 17.4328 8.9141C17.4156 8.89283 17.3938 8.87567 17.3691 8.86389C17.3444 8.8521 17.3173 8.84599 17.2899 8.84598H11.1159Z" fill="#F40027"/>
</g>
<defs>
<clipPath id="clip0_6_60">
<rect width="24" height="24" fill="white" transform="translate(0.5 0.5)"/>
</clipPath>
</defs>
</svg>
