<?xml version="1.0" encoding="UTF-8" standalone="no"?>
<!-- Created with Inkscape (http://www.inkscape.org/) -->

<svg
   xmlns:dc="http://purl.org/dc/elements/1.1/"
   xmlns:cc="http://creativecommons.org/ns#"
   xmlns:rdf="http://www.w3.org/1999/02/22-rdf-syntax-ns#"
   xmlns:svg="http://www.w3.org/2000/svg"
   xmlns="http://www.w3.org/2000/svg"
   xmlns:sodipodi="http://sodipodi.sourceforge.net/DTD/sodipodi-0.dtd"
   xmlns:inkscape="http://www.inkscape.org/namespaces/inkscape"
   width="252"
   height="117.28266"
   viewBox="0 0 66.674997 31.031037"
   version="1.1"
   id="svg275"
   inkscape:version="0.92.4 (5da689c313, 2019-01-14)"
   sodipodi:docname="drawing.svg">
  <defs
     id="defs269">
    <clipPath
       clipPathUnits="userSpaceOnUse"
       id="clipPath76">
      <path
         d="m 42.52,794.832 h 102.047 v 45.923 H 42.52 Z"
         id="path74"
         inkscape:connector-curvature="0" />
    </clipPath>
  </defs>
  <sodipodi:namedview
     id="base"
     pagecolor="#ffffff"
     bordercolor="#666666"
     borderopacity="1.0"
     inkscape:pageopacity="0.0"
     inkscape:pageshadow="2"
     inkscape:zoom="2.8"
     inkscape:cx="-34.623253"
     inkscape:cy="51.985797"
     inkscape:document-units="mm"
     inkscape:current-layer="layer1"
     showgrid="false"
     units="px"
     fit-margin-top="1"
     fit-margin-left="1"
     fit-margin-right="1"
     fit-margin-bottom="1"
     inkscape:window-width="1920"
     inkscape:window-height="1001"
     inkscape:window-x="-9"
     inkscape:window-y="-9"
     inkscape:window-maximized="1" />
  <metadata
     id="metadata272">
    <rdf:RDF>
      <cc:Work
         rdf:about="">
        <dc:format>image/svg+xml</dc:format>
        <dc:type
           rdf:resource="http://purl.org/dc/dcmitype/StillImage" />
        <dc:title></dc:title>
      </cc:Work>
    </rdf:RDF>
  </metadata>
  <g
     inkscape:label="Layer 1"
     inkscape:groupmode="layer"
     id="layer1"
     transform="translate(-83.789032,-108.9803)">
    <g
       id="g223"
       transform="matrix(0.64818989,0,0,-0.64818989,56.492581,654.94882)">
      <path
         inkscape:connector-curvature="0"
         id="path58"
         style="fill:#2ea836;fill-opacity:1;fill-rule:nonzero;stroke:none"
         d="m 42.52,794.832 h 102.047 v 47.057 H 42.52 Z" />
      <path
         inkscape:connector-curvature="0"
         id="path60"
         style="fill:#2ea836;fill-opacity:1;fill-rule:nonzero;stroke:none"
         d="m 42.52,794.834 h 102.047 v 45.922 H 42.52 Z" />
      <g
         transform="translate(111.0274,829.7612)"
         id="g62">
        <path
           inkscape:connector-curvature="0"
           id="path64"
           style="fill:#ffffff;fill-opacity:1;fill-rule:nonzero;stroke:none"
           d="M 0,0 1.341,-1.341 2.682,0 1.341,1.341 Z" />
      </g>
      <g
         transform="translate(88.9601,824.0906)"
         id="g66">
        <path
           inkscape:connector-curvature="0"
           id="path68"
           style="fill:#ffffff;fill-opacity:1;fill-rule:nonzero;stroke:none"
           d="M 0,0 -7.237,7.028 V -4.604 h 2.084 V 2.019 L 2.084,-4.943 V 6.705 H 0 Z" />
      </g>
      <g
         id="g70">
        <g
           clip-path="url(#clipPath76)"
           id="g72">
          <g
             transform="translate(109.5249,829.131)"
             id="g78">
            <path
               inkscape:connector-curvature="0"
               id="path80"
               style="fill:#ffffff;fill-opacity:1;fill-rule:nonzero;stroke:none"
               d="M 0,0 C 0.226,0 0.711,-0.048 1.083,-0.129 L 0.856,1.793 c -0.42,0.081 -0.807,0.113 -1.228,0.113 -1.857,0 -2.875,-1.001 -2.924,-3.198 h -2.778 v 0.275 c 0,0.775 0.387,1.017 1.244,1.017 0.226,0 0.711,-0.048 1.082,-0.129 l -0.226,1.922 c -0.42,0.081 -0.808,0.113 -1.228,0.113 -1.858,0 -2.875,-1.001 -2.924,-3.198 H -8.869 L -9.24,-3.183 h 1.114 v -6.461 h 2.052 v 6.461 h 2.778 v -6.461 h 2.052 v 6.461 h 2.197 v 1.891 h -2.197 v 0.275 C -1.244,-0.242 -0.856,0 0,0" />
          </g>
          <g
             transform="translate(97.6189,822.1359)"
             id="g82">
            <path
               inkscape:connector-curvature="0"
               id="path84"
               style="fill:#ffffff;fill-opacity:1;fill-rule:nonzero;stroke:none"
               d="m 0,0 c -0.275,-0.404 -0.985,-0.937 -1.858,-0.937 -0.711,0 -1.454,0.226 -1.454,1.519 V 5.703 H -5.363 V 0.13 c 0,-2.133 1.357,-2.94 3.085,-2.94 1.18,0 1.923,0.5 2.327,0.823 V -2.649 H 2.052 V 5.703 H 0 Z" />
          </g>
          <path
             inkscape:connector-curvature="0"
             id="path86"
             style="fill:#ffffff;fill-opacity:1;fill-rule:nonzero;stroke:none"
             d="m 111.334,819.487 h 2.052 v 8.351 h -2.052 z" />
          <g
             transform="translate(116.4391,823.5255)"
             id="g88">
            <path
               inkscape:connector-curvature="0"
               id="path90"
               style="fill:#ffffff;fill-opacity:1;fill-rule:nonzero;stroke:none"
               d="m 0,0 c -0.048,1.389 0.775,2.682 2.488,2.682 0.695,0 1.227,-0.34 1.438,-0.889 z m 2.439,4.475 c -2.697,0 -4.523,-1.923 -4.523,-4.443 0,-2.294 1.503,-4.265 4.459,-4.265 1.389,0 2.504,0.356 3.651,1.018 l -0.63,1.777 c -0.937,-0.63 -1.794,-0.985 -2.86,-0.985 -0.84,0 -1.502,0.194 -1.987,0.727 L 6.284,0.921 C 5.88,3.296 4.588,4.475 2.439,4.475" />
          </g>
          <g
             transform="translate(132.9977,822.233)"
             id="g92">
            <path
               inkscape:connector-curvature="0"
               id="path94"
               style="fill:#ffffff;fill-opacity:1;fill-rule:nonzero;stroke:none"
               d="m 0,0 c -0.533,-0.549 -1.244,-1.017 -2.245,-1.017 -1.47,0 -2.084,1.146 -2.084,2.39 0,1.406 0.743,2.504 2.197,2.504 0.937,0 1.68,-0.501 2.132,-1.098 z m 0,5.024 c -0.404,0.323 -1.131,0.744 -2.294,0.744 -2.342,0 -4.151,-1.632 -4.151,-4.314 0,-3.021 1.841,-4.361 3.828,-4.361 1.276,0 2.084,0.403 2.649,0.92 v -0.759 h 2.02 V 8.675 L 0,8.417 Z" />
          </g>
          <g
             transform="translate(123.5311,819.487)"
             id="g96">
            <path
               inkscape:connector-curvature="0"
               id="path98"
               style="fill:#ffffff;fill-opacity:1;fill-rule:nonzero;stroke:none"
               d="M 0,0 H 2.052 V 11.421 L 0,11.163 Z" />
          </g>
          <g
             transform="translate(115.1952,809.2458)"
             id="g100">
            <path
               inkscape:connector-curvature="0"
               id="path102"
               style="fill:#ffffff;fill-opacity:1;fill-rule:nonzero;stroke:none"
               d="m 0,0 v 2.956 h 2.149 v 1.89 H 0 V 7.221 L -2.052,6.963 V 4.846 h -0.742 l -0.372,-1.89 h 1.114 v -3.279 c 0,-2.229 0.582,-3.312 2.973,-3.312 0.291,0 0.759,0.033 1.147,0.113 L 2.31,-1.567 C 1.955,-1.68 1.47,-1.728 1.212,-1.728 0.258,-1.728 0,-1.47 0,0" />
          </g>
          <g
             transform="translate(109.3797,805.7404)"
             id="g104">
            <path
               inkscape:connector-curvature="0"
               id="path106"
               style="fill:#ffffff;fill-opacity:1;fill-rule:nonzero;stroke:none"
               d="M 0,0 H 2.052 V 11.421 L 0,11.163 Z" />
          </g>
          <g
             transform="translate(122.6749,814.2538)"
             id="g108">
            <path
               inkscape:connector-curvature="0"
               id="path110"
               style="fill:#ffffff;fill-opacity:1;fill-rule:nonzero;stroke:none"
               d="M 0,0 C -1.066,0 -1.793,-0.339 -2.31,-0.711 V 2.908 L -4.362,2.649 V -8.513 h 2.052 v 5.734 c 0.339,0.42 1.002,0.905 1.793,0.905 0.727,0 1.535,-0.178 1.535,-1.454 V -8.513 H 3.07 v 5.476 C 3.07,-0.743 1.486,0 0,0" />
          </g>
          <g
             transform="translate(106.1163,808.2278)"
             id="g112">
            <path
               inkscape:connector-curvature="0"
               id="path114"
               style="fill:#ffffff;fill-opacity:1;fill-rule:nonzero;stroke:none"
               d="m 0,0 c -0.177,-0.177 -0.953,-0.824 -2.1,-0.824 -0.953,0 -1.341,0.469 -1.341,1.002 0,0.694 0.404,1.066 1.535,1.066 0.808,0 1.615,-0.307 1.906,-0.517 z m -1.519,6.026 c -0.969,0 -1.954,-0.178 -2.811,-0.485 L -4.733,3.603 c 0.694,0.323 1.841,0.662 2.875,0.662 C -0.646,4.265 0,3.877 0,2.876 V 2.504 c -0.678,0.356 -1.438,0.485 -2.197,0.485 -1.874,0 -3.344,-0.824 -3.344,-2.795 0,-1.519 1.115,-2.843 3.069,-2.843 1.357,0 2.133,0.533 2.504,0.904 v -0.742 h 2.02 v 5.072 c 0,1.858 -0.663,3.441 -3.571,3.441" />
          </g>
          <g
             transform="translate(88.7824,812.5736)"
             id="g116">
            <path
               inkscape:connector-curvature="0"
               id="path118"
               style="fill:#ffffff;fill-opacity:1;fill-rule:nonzero;stroke:none"
               d="m 0,0 h -4.96 v 4.475 h -2.1 V -6.833 h 2.1 v 4.814 H 0 V -6.833 H 2.1 V 4.475 H 0 Z" />
          </g>
          <g
             transform="translate(93.9843,809.7789)"
             id="g120">
            <path
               inkscape:connector-curvature="0"
               id="path122"
               style="fill:#ffffff;fill-opacity:1;fill-rule:nonzero;stroke:none"
               d="m 0,0 c -0.049,1.389 0.775,2.682 2.488,2.682 0.695,0 1.227,-0.34 1.438,-0.889 z m 2.439,4.475 c -2.697,0 -4.523,-1.923 -4.523,-4.443 0,-2.294 1.502,-4.265 4.459,-4.265 1.389,0 2.504,0.356 3.651,1.018 l -0.63,1.777 c -0.937,-0.63 -1.794,-0.985 -2.86,-0.985 -0.84,0 -1.502,0.194 -1.987,0.727 L 6.284,0.921 C 5.88,3.296 4.588,4.475 2.439,4.475" />
          </g>
          <g
             transform="translate(74.6356,817.2319)"
             id="g124">
            <path
               inkscape:connector-curvature="0"
               id="path126"
               style="fill:#ffffff;fill-opacity:1;fill-rule:nonzero;stroke:none"
               d="m 0,0 h -8.608 v -11.28 c -0.076,-0.03 -0.158,-0.063 -0.232,-0.091 -0.624,-0.227 -1.499,-0.501 -2.119,-0.627 -0.62,0.126 -1.494,0.4 -2.114,0.625 -0.075,0.028 -0.159,0.063 -0.238,0.093 V 0 h -8.607 v 4.487 h 8.607 v 8.975 c 0.014,10e-4 0.029,0.002 0.043,0.003 0.847,0.053 1.538,0.076 2.309,0.076 0.772,0 1.462,-0.023 2.306,-0.076 0.015,-10e-4 0.031,-0.002 0.045,-0.003 V 4.487 H 0 Z m -8.608,14.14 v -0.001 c -0.989,0.062 -1.701,0.077 -2.351,0.077 -0.649,0 -1.362,-0.015 -2.352,-0.077 v 0.001 c -2.289,-0.154 -5.94,-0.619 -9.282,-1.918 V 12.221 4.487 0 -0.557 -0.565 c 0,-0.059 0.004,-0.115 0.005,-0.174 0.103,-6.805 5.904,-10.009 9.277,-11.267 v 10e-4 c 10e-4,0 10e-4,-10e-4 0.002,-10e-4 0.68,-0.247 1.67,-0.556 2.35,-0.68 0.68,0.124 1.67,0.433 2.35,0.68 0,0 10e-4,10e-4 10e-4,10e-4 v -10e-4 c 3.374,1.258 9.175,4.462 9.278,11.267 0.001,0.059 0.005,0.115 0.005,0.174 V -0.557 0 v 4.487 7.734 10e-4 c -3.342,1.299 -6.962,1.764 -9.283,1.918" />
          </g>
        </g>
      </g>
    </g>
  </g>
</svg>
