<?xml version="1.0" encoding="UTF-8"?>
<svg width="270px" height="72px" viewBox="0 0 270 72" version="1.1" xmlns="http://www.w3.org/2000/svg" xmlns:xlink="http://www.w3.org/1999/xlink">
    <!-- Generator: Sketch 52.5 (67469) - http://www.bohemiancoding.com/sketch -->
    <title>Artboard</title>
    <desc>Created with Sketch.</desc>
    <defs>
        <rect id="path-1" x="0" y="0" width="24" height="40"></rect>
    </defs>
    <g id="Artboard" stroke="none" stroke-width="1" fill="none" fill-rule="evenodd">
        <rect id="I" fill="#757575" x="8" y="18" width="8" height="40"></rect>
        <rect id="O" fill="#757575" x="24" y="18" width="32" height="40"></rect>
        <g id="/" transform="translate(62.000000, 18.000000)">
            <mask id="mask-2" fill="white">
                <use xlink:href="#path-1"></use>
            </mask>
            <use id="Rectangle" fill-opacity="0" fill="#FFFFFF" xlink:href="#path-1"></use>
            <path d="M4.5,40 L20.5,0" id="Line" stroke="#757575" stroke-width="8" stroke-linecap="square" mask="url(#mask-2)"></path>
        </g>
        <path d="M106.088,5.592 L106.088,13.08 L99.968,13.08 L99.968,5.592 L106.088,5.592 Z M99.968,57 L99.968,19.776 L106.088,19.776 L106.088,57 L99.968,57 Z M117.056,38.424 C117.056,47.424 122.24,52.464 128.648,52.464 C135.056,52.464 140.24,47.424 140.24,38.424 C140.24,29.424 135.056,24.312 128.648,24.312 C122.24,24.312 117.056,29.424 117.056,38.424 Z M110.576,38.424 C110.576,27.48 116.84,18.912 128.648,18.912 C140.456,18.912 146.72,27.48 146.72,38.424 C146.72,49.296 140.456,57.864 128.648,57.864 C116.84,57.864 110.576,49.296 110.576,38.424 Z M150.704,57 L150.704,19.776 L156.464,19.776 L156.464,27.624 L156.608,27.624 C159.56,21.576 163.664,18.696 170.288,18.912 L170.288,25.392 C160.424,25.392 156.824,30.936 156.824,40.44 L156.824,57 L150.704,57 Z M176.36,38.424 C176.36,47.424 181.544,52.464 187.952,52.464 C194.36,52.464 199.544,47.424 199.544,38.424 C199.544,29.424 194.36,24.312 187.952,24.312 C181.544,24.312 176.36,29.424 176.36,38.424 Z M169.88,38.424 C169.88,27.48 176.144,18.912 187.952,18.912 C199.76,18.912 206.024,27.48 206.024,38.424 C206.024,49.296 199.76,57.864 187.952,57.864 C176.144,57.864 169.88,49.296 169.88,38.424 Z M214.688,38.424 C214.688,47.424 219.872,52.464 226.28,52.464 C232.688,52.464 237.872,47.424 237.872,38.424 C237.872,29.424 232.688,24.312 226.28,24.312 C219.872,24.312 214.688,29.424 214.688,38.424 Z M208.208,38.424 C208.208,27.48 214.472,18.912 226.28,18.912 C238.088,18.912 244.352,27.48 244.352,38.424 C244.352,49.296 238.088,57.864 226.28,57.864 C214.472,57.864 208.208,49.296 208.208,38.424 Z M257.048,8.616 L257.048,19.776 L264.464,19.776 L264.464,25.176 L257.048,25.176 L257.048,48.288 C257.048,51.168 257.84,51.6 261.656,51.6 L264.464,51.6 L264.464,57 L259.784,57 C253.448,57 250.928,55.704 250.928,48.864 L250.928,25.176 L244.592,25.176 L244.592,19.776 L250.928,19.776 L250.928,8.616 L257.048,8.616 Z" id="ioroot" fill="#E0E0E0"></path>
    </g>
</svg>