<svg width="534" height="534" viewBox="0 0 534 534" fill="none" xmlns="http://www.w3.org/2000/svg">
<path d="M70.5808 218.726H85.2283L119.185 0.333374H188.434L154.477 218.061H169.124L203.747 0.333374H271.663L237.807 218.726H237.704L208.407 404.493H242.366L249.024 359.216H270.329L274.992 404.493H314.94L292.968 218.726H252.456L286.31 0.333374H534V266.001C534 225.386 512.027 216.065 482.73 216.065C456.1 216.065 432.128 228.048 432.128 270.662V353.224C432.128 395.841 456.1 407.824 482.73 407.824C516.688 407.823 534 390.512 534 355.89V533.666H0.000732422V0.333374H104.539L70.5808 218.726ZM321.6 404.493H362.88C413.485 404.493 423.471 383.856 423.471 348.566V282.648C423.471 226.719 408.156 218.728 362.88 218.728H321.6V404.493ZM361.552 245.362C382.189 245.362 382.856 251.354 382.856 275.988V352.561C382.856 369.872 381.525 377.864 361.552 377.864V245.362ZM482.73 246.027C491.388 246.027 493.384 252.685 493.385 260.674V285.978H534V331.917H493.385V363.213C493.385 370.536 491.389 377.861 482.73 377.862C474.743 377.862 472.079 370.538 472.079 363.213V260.674C472.079 252.685 474.742 246.027 482.73 246.027ZM267.668 331.25H253.018L260.344 248.024L267.668 331.25Z" fill="white"/>
</svg>
