<svg width="305" height="92" viewBox="0 0 305 92" fill="none" xmlns="http://www.w3.org/2000/svg">
<path d="M29.5 53.4001V79.1002C29.5 81.4002 28.6 83.6001 27.1 85.4001C25.4 87.0001 23.1 87.8002 20.8 87.7002H20V91.8002H20.8C24.3 92.0002 27.7 90.8001 30.2 88.4001C32.5 85.9001 33.8 82.7002 33.9 79.3002V53.5002H29.5V53.4001Z" fill="white"/>
<path d="M246.2 52.6001C244.4 52.9001 242.7 53.5001 241 54.3001C239.5 55.0001 238.2 56.0001 237.3 57.4001C236.6 58.6001 236.2 60.0001 236.2 61.4001C236.1 63.1001 236.6 64.7001 237.5 66.1001C238.3 67.2001 239.3 68.0001 240.4 68.7001L241.9 69.4001L243.9 70.1001L247 70.9001L251.7 72.0001L256.3 73.0001L259.4 73.8001L261.4 74.5001L262.8 75.2001L263.8 75.9001L264.7 76.9001C265 77.3001 265.2 77.8001 265.4 78.2001C265.6 78.7001 265.7 79.3001 265.7 79.9001C265.7 80.9001 265.4 81.8001 264.9 82.6001C264.3 83.5001 263.6 84.2001 262.7 84.8001C261.3 85.7001 259.8 86.4001 258.3 86.8001C256.4 87.3001 254.4 87.6001 252.4 87.6001C249.4 87.7001 246.4 87.2001 243.6 86.2001C241.7 85.5001 239.9 84.3001 238.6 82.8001L237.8 81.9001L234.7 84.6001L235.5 85.5001C237.3 87.5001 239.5 89.1001 242 90.0001C245.3 91.2001 248.9 91.8001 252.4 91.7001C254.8 91.7001 257.2 91.4001 259.4 90.8001C261.4 90.3001 263.2 89.5001 264.9 88.4001C266.4 87.5001 267.6 86.2001 268.5 84.7001C269.3 83.3001 269.7 81.7001 269.6 80.1001C269.7 78.4001 269.1 76.6001 268.2 75.2001C267.4 74.0001 266.3 73.0001 265.1 72.3001L263.2 71.1001L260.7 70.2001L257.6 69.4001L253.6 68.5001L249.1 67.5001L246.2 66.6001L244.2 66.0001L242.7 65.4001C242 65.0001 241.4 64.5001 240.9 63.9001C240.5 63.3001 240.3 62.5001 240.3 61.8001C240.3 60.1001 241.3 58.6001 242.9 57.9001C244.2 57.2001 245.5 56.8001 246.9 56.6001C248.7 56.3001 250.6 56.1001 252.4 56.2001C255.1 56.1001 257.8 56.5001 260.3 57.4001C261.8 58.0001 263.1 59.1001 264 60.5001L264.6 61.5001L268.3 59.5001L267.8 58.4001C267.2 57.4001 266.5 56.4001 265.6 55.7001C264.7 54.9001 263.6 54.2001 262.5 53.7001C261.1 53.1001 259.7 52.7001 258.2 52.5001C256.3 52.2001 254.5 52.1001 252.6 52.2001C250.5 52.1001 248.3 52.2001 246.2 52.6001Z" fill="white"/>
<path d="M187.2 52.8V90.9H214V86.9H191.4V73.1H209.2V69H191.4V56.8H213.3V52.8H187.2Z" fill="white"/>
<path d="M127.7 52.8V91H132.1V69.3C132.1 69.3 132.1 63.5 132.1 59.9L140.3 70.1L157.2 91H160.9V52.8H156.7V74.5C156.7 74.5 156.7 80.2 156.7 83.9L148.6 73.8L131.6 52.8H127.7Z" fill="white"/>
<path d="M101.9 71.9C102 68.9 101.4 65.9 100.1 63.2C98.9999 60.8 97.4 58.7 95.4 56.9C93.4 55.2 91.2 54 88.7 53.2C83.7 51.6 78.3 51.6 73.3 53.2C70.8 54 68.5999 55.2 66.5999 56.9C64.5999 58.6 63 60.8 61.9 63.2C60.7 65.9 59.9999 68.9 60.0999 71.9C59.9999 74.9 60.6 77.9 61.9 80.6C63 83 64.5999 85.2 66.5999 86.9C68.5999 88.6 70.8 89.8 73.3 90.5C78.3 92.1 83.7 92.1 88.7 90.5C91.2 89.7 93.4 88.5 95.4 86.9C97.4 85.2 98.9999 83 100.1 80.6C101.2 77.8 101.8 74.9 101.9 71.9ZM97.5999 71.9C97.6999 74.3 97.2 76.7 96.2 78.9C95.4 80.8 94.0999 82.4 92.5999 83.8C91.0999 85.1 89.3 86.1 87.3 86.7C83.2 88 78.6999 88 74.5999 86.7C72.6999 86.1 70.9 85.1 69.3 83.8C67.7 82.5 66.5 80.8 65.7 78.9C64.7 76.7 64.3 74.3 64.4 71.9C64.3 69.5 64.8 67.1 65.7 64.9C66.6 63 67.8999 61.3 69.4999 60C70.9999 58.7 72.8 57.7 74.8 57.1C76.8 56.4 78.8999 56.1 81.0999 56.1C83.1999 56.1 85.3 56.4 87.4 57.1C89.3 57.7 91.1 58.7 92.7 60C94.3 61.3 95.5 63 96.3 64.9C97.2 67 97.6999 69.4 97.5999 71.9Z" fill="white"/>
<path d="M271.5 1.19995V5.19995H286V39.2999H290.2V5.19995H304.6V1.19995H271.5Z" fill="white"/>
<path d="M230.4 0.999939C228.6 1.29994 226.8 1.89995 225.2 2.69995C223.7 3.39995 222.4 4.49993 221.5 5.79993C220.8 6.99993 220.4 8.39993 220.4 9.79993C220.3 11.4999 220.7 13.1999 221.7 14.5999C222.5 15.6999 223.5 16.6 224.6 17.2L226 17.8999L228 18.5999L231.1 19.3999L235.8 20.4999L240.3 21.4999L243.4 22.2999L245.4 22.9999L246.8 23.7L247.9 24.3999L248.7 25.4999C249 25.8999 249.2 26.2999 249.4 26.7999C249.6 27.2999 249.7 27.7999 249.7 28.2999C249.7 29.2999 249.4 30.1999 248.9 30.9999C248.3 31.8999 247.6 32.6 246.7 33.2C245.3 34.1 243.9 34.8 242.3 35.2C240.4 35.7 238.4 35.9999 236.4 35.9999C233.4 36.0999 230.5 35.5999 227.7 34.5999C225.8 33.8999 224 32.7 222.7 31.2L221.9 30.2999L218.8 32.9999L219.6 33.8999C221.4 35.8999 223.6 37.4999 226.1 38.3999C229.4 39.5999 233 40.1999 236.5 40.0999C238.9 40.0999 241.3 39.8 243.6 39.2C245.6 38.7 247.4 37.7999 249.1 36.7999C250.6 35.7999 251.8 34.5999 252.7 33.0999C253.6 31.6999 254 29.9999 254 28.3999C254.1 26.6999 253.5 24.8999 252.6 23.4999C251.7 22.2999 250.7 21.3999 249.5 20.5999L247.3 19.3999L244.8 18.4999L241.7 17.7L237.7 16.8999L233.3 15.8999L230.2 15.2L228.2 14.5999L226.7 13.9999C226 13.5999 225.4 13.0999 224.9 12.4999C224.5 11.8999 224.3 11.0999 224.3 10.3999C224.3 8.69993 225.3 7.09994 226.9 6.49994C228.1 5.79994 229.5 5.39995 230.9 5.19995C232.7 4.89995 234.6 4.69993 236.4 4.79993C239.1 4.69993 241.8 5.09994 244.3 5.99994C245.8 6.59994 247.1 7.69995 248 9.09995L248.7 10.0999L252.4 8.09995L251.8 6.99994C251.2 5.99994 250.5 5.09993 249.6 4.29993C248.7 3.49993 247.6 2.79993 246.5 2.29993C245.1 1.69993 243.7 1.29995 242.2 1.09995C240.3 0.799945 238.4 0.699951 236.5 0.699951C234.4 0.699951 232.3 0.899951 230.2 1.19995" fill="white"/>
<path d="M171.3 1.19995V39.2999H198.1V35.2999H175.5V21.4999H193.3V17.3999H175.5V5.19995H197.4V1.19995H171.3Z" fill="white"/>
<path d="M111.9 1.19995V39.3999H116.1V17.7C116.1 17.7 116.1 11.8999 116.1 8.29993C118.8 11.5999 124.3 18.4999 124.3 18.4999L141.3 39.3999H145V1.19995H140.7V22.8999C140.7 22.8999 140.7 28.5999 140.7 32.2999L132.6 22.2L115.6 1.19995H111.9Z" fill="white"/>
<path d="M83.4 16.9C84.2 15.5 84.5 13.9 84.5 12.3C84.5 10.7 84.1 8.99997 83.4 7.59997C82.6 6.09997 81.3 4.79997 79.8 3.99997C78 2.99997 76 2.19995 73.9 1.79995C71.2 1.29995 68.4 0.999972 65.6 1.09997H52.3V39.3H56.5V24.1H67.6L83.3 39.3H89.3L73 23.7C74 23.5 75 23.3 76 22.9C77.6 22.4 79.1 21.5 80.4 20.5C81.7 19.5 82.7 18.3 83.5 16.9M80.4 12.4C80.4 13.4 80.2 14.3 79.7 15.2C79.2 16.2 78.5 17 77.6 17.6C76.4 18.4 75.2 18.9 73.8 19.3C72.1 19.8 70.3 20 68.6 20H56.6V5.29995H65.3C68 5.19995 70.7 5.49997 73.3 5.99997C74.9 6.29997 76.5 6.89998 77.9 7.69998C78.8 8.19998 79.4 8.99996 79.8 9.89996C80.1 10.7 80.3 11.6 80.4 12.4Z" fill="white"/>
<path d="M0.800049 1.19995V39.2999H27.6V35.2999H5.00005V21.4999H22.8V17.3999H5.00005V5.19995H26.9001V1.19995H0.800049Z" fill="white"/>
</svg>
