<svg version="1.2" xmlns="http://www.w3.org/2000/svg" viewBox="0 0 315 120" width="315" height="120">
	<title>the-football-association-the-fa-seeklogo</title>
	<style>
		.s0 { fill: #ffffff } 
	</style>
	<path id="&lt;Path&gt;" class="s0" d="m26.1 31v11.8h15.3v46.2h13.7v-46.2h13.9l4.6-11.8z"/>
	<path id="&lt;Path&gt;" class="s0" d="m90.6 51v-20h-12.6v58h12.6v-27.1c2.1-1.9 6.3-4.8 10.4-4.8 3.2 0 5.1 1.5 6 3.6 0.6 1.6 0.9 3.2 0.9 5.8v22.5h12.6v-24.8c0-4.4-0.5-6.9-1.3-9-2.1-5.9-7.2-9.3-14.5-9.3-6.1 0-10.3 2.2-14.1 5.1z"/>
	<path id="&lt;Path&gt;" class="s0" d="m196.6 55.6v-12.8h27.1l4.4-11.8h-45v58h13.5v-21.2h17.6l4.6-12.2z"/>
	<path id="&lt;Compound Path&gt;" fill-rule="evenodd" class="s0" d="m169.2 72h-30.5c0.7 5.5 4.7 9 12.4 9 6.4 0 12-1.5 15.2-2.7l-3.4 9.7c-3 1.2-7.1 2.2-13.2 2.2-14.1 0-22.3-8.5-22.3-22.2 0-13.3 8.2-22.1 21.3-22.1 13.8 0 22 11.2 20.5 26.1zm-11.5-8.3c-0.7-4.9-3.9-8.8-9.5-8.8-5.3 0-9 3.6-9.5 8.8z"/>
	<path id="&lt;Compound Path&gt;" fill-rule="evenodd" class="s0" d="m277.1 89h-14.1l-3.8-11.5h-23.9l-4.1 11.5h-13.6l22.1-58h15.8zm-22.1-22.9l-7.6-21.8h-0.4l-7.8 21.8z"/>
</svg>