<svg width="3430" height="3430" viewBox="0 0 3430 3430" fill="none" xmlns="http://www.w3.org/2000/svg">
<g clip-path="url(#clip0_3_2)">
<path d="M1590.69 4.77998C1929.02 -20.995 2274.33 58.06 2568.02 227.908C2802.95 363.341 3006.06 554.429 3153.09 782.524C3335.68 1061.38 3432.3 1395.17 3429.5 1728.46C3427.34 2076.8 3316.45 2423.84 3113.85 2707.44C2908.36 2998.32 2609.56 3222.39 2272.38 3337.01C1972.86 3440.62 1644.69 3456.89 1335.66 3387.7C1011.59 3315.48 710.56 3144.99 480.304 2905.95C236.224 2653.16 71.056 2324.19 20.583 1976.07C-29.024 1666.04 12.016 1342.54 133.119 1053.24C245.584 784.108 428.681 545.572 657.929 365.572C923.608 156.052 1253.01 28.252 1590.69 4.85199M1590.26 87.148C1389.23 101.548 1191.45 155.332 1009.72 242.308C717.257 383.285 467.2 612.245 305.056 893.764C63.496 1299.77 16.84 1813.64 175.24 2258.09C276.832 2547.1 462.304 2804.93 702.136 2995.23C980.776 3216.27 1333.29 3343.64 1689.26 3346.66C1949.18 3352.35 2210.32 3293.31 2442.38 3176.31C2738.01 3030 2986.41 2790.68 3145.24 2501.74C3303.93 2214.89 3373.55 1878.8 3338.2 1552.71C3291.26 1023.44 2960.63 533.045 2494.14 281.692C2220.54 130.924 1902.01 61.877 1590.47 87.293L1590.26 87.148Z" fill="white"/>
<path d="M1301.68 242.236C1586.66 162.676 1895.1 166.06 2176.98 257.068C2189.22 260.884 2198.66 269.884 2208.31 278.02C2161.79 274.636 2119.1 253.541 2073.38 245.692C1958.11 222.652 1838.73 211.276 1721.94 228.7C1648.79 241.877 1571.97 270.173 1525.53 331.301C1490.61 376.661 1486.86 448.013 1527.4 491.069C1572.4 538.662 1652.18 536.069 1702 497.622C1760.9 454.422 1817.99 402.87 1891.43 386.813C2040.76 349.805 2197.36 379.542 2342.01 422.597C2515.67 469.972 2679.98 555.652 2813.25 677.188C3035.37 873.388 3168.78 1155.05 3219.47 1443.84C3263.61 1690.3 3250.36 1947.77 3173.9 2186.6C3171.23 2197.76 3164.03 2204.31 3152.44 2206.11C3196.79 2043.53 3229.77 1870.95 3196.58 1703.04C3179.15 1621.97 3139.27 1530.61 3053.94 1502.96C2988.64 1479.85 2909.15 1524.7 2903.9 1595.69C2891.44 1671.65 2953.51 1726.37 2992.17 1783.25C3075.19 1902.41 3064.89 2056.93 3044.59 2193.65C3006.43 2378.76 2944.65 2563.01 2832.55 2717.24C2659.46 2965.64 2383.84 3129.58 2092.53 3199.64C1839.38 3260.19 1571.03 3259.76 1318.31 3197.48C1285.05 3187.54 1247.25 3183.08 1221.4 3157.59C1269.57 3157.52 1314.28 3178.4 1361.44 3185.88C1490.25 3209.28 1624.89 3223.83 1753.55 3191.57C1811.87 3175.52 1870.98 3147.72 1907.63 3097.76C1941.61 3051.1 1940.9 2979.75 1899.14 2938.06C1862.99 2899.9 1802.73 2892.05 1756.5 2916.1C1701.57 2945.84 1659.59 2994.73 1603.58 3022.88C1490.54 3077.81 1359.35 3069.75 1238.68 3049.37C1038.66 3010.06 841.024 2937.56 679.816 2809.97C465.688 2645.38 317.44 2405.41 244.792 2146.92C167.896 1876.35 167.393 1585.54 237.521 1313.53C249.617 1285.37 245.008 1240.88 277.121 1227.49C236.081 1382.93 203.682 1545.87 228.593 1706.86C241.266 1778.36 266.322 1854.1 325.505 1900.54C366.545 1934.45 430.697 1946.84 476.058 1914.29C524.442 1886 540.426 1818.82 517.89 1769.21C494.274 1713.27 446.25 1672.52 418.818 1618.66C359.418 1510.16 365.97 1380.63 381.738 1261.83C414.93 1071.53 479.442 883.542 591.69 724.782C758.296 483.292 1020.59 318.052 1301.54 242.163M1340.06 819.892C1247.18 869.932 1183.38 959.356 1136.66 1051.59C1087.05 1146.41 1066.53 1252.32 1056.74 1357.8C1010.94 1351.68 974.008 1316.12 963.497 1271.55C942.112 1206.39 964.721 1139.5 976.312 1075.13C981.497 1056.48 967.312 1041.22 959.752 1025.88C920.799 1023.51 880.983 1042.66 863.272 1078.44C810.208 1177.59 814.888 1311.44 888.256 1399.42C930.304 1452.7 996.76 1478.98 1062.78 1486.04C1085.03 1554.65 1128.59 1621.61 1198.58 1648.54C1284.18 1683.03 1378.14 1646.89 1452.59 1601.89C1449.93 1629.46 1448.42 1657.76 1438.84 1684.04C1412.7 1705.06 1380.88 1717.37 1351.65 1733.64C1208.15 1809.32 1061.92 1885.49 941.249 1995.65C853.337 2078.17 784.216 2187.89 770.969 2309.43C764.561 2404.97 802.576 2509.88 886.313 2562.36C973.792 2620.32 1089.14 2617.08 1184.46 2581.16C1304.7 2535.36 1394.35 2433.41 1453.6 2322.1C1541.3 2164.56 1556.27 1980.82 1569.02 1804.56C1572.54 1783.97 1568.15 1754.74 1592.42 1745.81C1735.62 1665.32 1874.8 1577.62 2007.86 1481.14C2023.62 1500.51 2039.18 1520.02 2054.01 1540.04C1985.53 1580.86 1917.21 1624.92 1865.51 1686.77C1672.12 1898.31 1668.95 2261.33 1871.63 2467.76C1975.24 2577.05 2134.58 2623.85 2282.03 2601.96C2417.61 2582.67 2540.87 2497.42 2609.27 2379.27C2700.5 2228.79 2685.52 2018.33 2567.01 1887C2456.13 1764.53 2240.27 1766.91 2131.84 1891.25C2046.52 1980.96 2043.78 2139.65 2132.78 2227.56C2168.85 2263.49 2231.63 2285.31 2276.92 2254.28C2306.15 2233.25 2303.34 2188.25 2279.8 2163.92C2249.34 2127.12 2213.27 2084.5 2222.42 2033.16C2231.56 1966.35 2306.22 1925.38 2369.15 1939.56C2423.01 1947.99 2466.06 1990.04 2486.08 2039.35C2533.24 2151.6 2506.53 2290.64 2421.86 2378.04C2332.14 2471.64 2176.05 2486.33 2067.76 2417C1971.57 2357.81 1916.85 2248.08 1900 2139.15C1882.29 2007.82 1907.49 1866.2 1988.92 1759.13C2041.34 1691.38 2114.49 1635.72 2198.65 1615.63C2269.36 1621.03 2342.58 1633.78 2411.85 1611.17C2444.39 1600.08 2476.07 1563.58 2459.51 1527.94C2441.58 1491.36 2397.52 1480.35 2360.87 1472.71C2306.08 1461.84 2251.57 1476.46 2197.93 1486.68C2160.49 1473.87 2140.77 1434.55 2126.87 1399.92C2230.91 1322.16 2333.73 1237.71 2404.43 1127.19C2445.47 1060.73 2472.18 979.226 2452.96 901.178C2437.69 849.482 2395.36 805.49 2341.21 795.699C2251.07 773.018 2158.84 818.522 2097.57 883.035C1999.14 989.883 1949.17 1137.99 1953.71 1282.42C1952.34 1312.3 1963.93 1343.55 1955.44 1372.28C1881.64 1431.75 1799.13 1479.63 1719.71 1531.04C1673.99 1557.53 1630.5 1588.13 1581.97 1609.59C1582.84 1563.58 1585.21 1516.92 1598.32 1472.57C1633.24 1424.76 1677.16 1383.22 1704.95 1330.15C1725.26 1293.58 1744.41 1247.21 1723.31 1206.82C1703.94 1176.87 1661.03 1179.75 1632.95 1194.72C1573.05 1224.75 1540.22 1288.18 1516.02 1347.65C1499.46 1385.67 1497.59 1432.83 1462.17 1459.75C1412.85 1502.88 1353.38 1546.15 1284.76 1543.71C1245.59 1543.92 1219.46 1506.99 1211.18 1472.43C1319.61 1430.38 1410.04 1351.83 1483.41 1263.12C1551.3 1175.86 1605.3 1072.83 1614.38 961.154C1619.49 904.849 1599.33 841.13 1547.92 811.681C1483.7 776.618 1403.13 786.625 1340.13 819.745L1340.06 819.892Z" fill="white"/>
<path d="M1402.27 923.212C1427.46 904.132 1469.01 912.196 1480.89 943.012C1490.11 980.956 1476.14 1019.4 1459.94 1053.24C1414 1146.92 1345.53 1228.2 1267.19 1296.39C1247.83 1314.1 1225.22 1327.92 1201.31 1338.44C1204.55 1255.13 1233.14 1174.78 1268.56 1100.12C1301.54 1033.88 1339.62 965.836 1402.27 923.212ZM2212.34 955.756C2234.59 930.052 2272.96 904.348 2306.94 921.844C2344.24 943.948 2324.8 993.34 2310.04 1023.58C2258.78 1118.19 2182.67 1197.96 2100.16 1266.08C2098.94 1153.83 2139.11 1040.86 2212.26 955.683L2212.34 955.756ZM1102.96 2044.4C1199.66 1963.04 1306.94 1893.2 1421.7 1840.13C1409.61 1967.07 1379.87 2092.92 1331.85 2211C1290.74 2306.12 1229.68 2404.11 1128.52 2443.06C1076.11 2462.72 1007.71 2475.1 962.273 2433.63C919.289 2395.47 922.169 2330.81 934.697 2279.62C960.834 2184.15 1030.96 2108.91 1102.89 2044.39L1102.96 2044.4Z" fill="white"/>
</g>
<defs>
<clipPath id="clip0_3_2">
<rect width="3429.56" height="3429.59" fill="white"/>
</clipPath>
</defs>
</svg>
