<svg width="1401" height="565" viewBox="0 0 1401 565" fill="none" xmlns="http://www.w3.org/2000/svg">
<path d="M1400.95 289.529H1244.98V300.97H1285.6C1285.6 300.97 1285.37 405.808 1285.37 417.016V485.195C1285.37 518.818 1276.96 528.391 1262.25 537.264C1246.14 546.136 1209.25 552.908 1184.5 552.908C1043.71 552.908 985.1 416.782 985.1 301.204C985.1 152.703 1055.38 50.9011 1166.99 50.9011C1236.34 50.9011 1302.18 72.3823 1321.79 146.866H1332.3V67.2455C1332.3 67.2455 1295.88 38.0591 1166.99 38.0591C1024.09 38.0591 910.616 124.451 910.616 310.777C910.616 469.785 1018.72 564.115 1179.13 564.115C1237.5 564.115 1297.98 549.872 1359.39 524.655V300.503H1400.48V289.529H1400.95ZM303.072 105.071L272.251 553.141H231.857V564.582H385.728V553.141H345.1L368.916 260.109L303.072 105.071ZM724.524 180.255L760.248 552.908H719.62V564.582H873.258V552.908H832.864L786.866 38.5261L724.524 180.255ZM549.172 564.582L590.5 474.454L320.35 0L549.172 564.582ZM431.959 0L608.012 436.395L644.203 357.008L431.959 0ZM527.224 0L659.146 323.386L692.535 246.567L527.224 0ZM156.206 50.2006V38.5261H115.345H40.861H0V50.2006H41.0945V552.908H0V564.582H41.0945H115.345H156.439V552.908H115.345V50.2006H156.206Z" fill="white"/>
</svg>
