<svg width="789" height="498" viewBox="0 0 789 498" fill="none" xmlns="http://www.w3.org/2000/svg">
<path d="M21.3242 0.0668945V497.933H0V0.0668945H21.3242ZM135.054 0.0668945V497.933H99.5137V0.0668945H135.054ZM270.108 0.0668945V497.933H191.919V0.0668945H270.108ZM789 0.0668945V497.933H291.433V0.0668945H789ZM701.911 358.459C698.379 358.46 695.536 359.327 693.382 361.042C691.228 362.763 690.154 365.075 690.154 367.969C690.12 370.053 690.832 372.081 692.159 373.687C693.495 375.33 695.535 376.767 698.236 377.998C700.126 378.901 701.994 379.849 703.838 380.842C705.579 381.845 706.446 383.147 706.446 384.74C706.453 385.296 706.319 385.844 706.057 386.334C705.794 386.824 705.412 387.24 704.946 387.542C703.937 388.254 702.629 388.609 700.994 388.609C697.746 388.609 694.277 387.08 690.596 384.029V390.586C692.266 391.631 694.056 392.471 695.927 393.089C697.519 393.58 699.41 393.823 701.613 393.823C705.004 393.823 707.754 392.912 709.887 391.091C712.012 389.271 713.078 386.888 713.078 383.922C713.078 381.639 712.453 379.683 711.209 378.054C709.958 376.425 707.918 374.946 705.089 373.616C701.784 372.101 699.893 371.183 699.396 370.849C697.633 369.754 696.758 368.552 696.758 367.25C696.751 366.731 696.879 366.218 697.128 365.762C697.377 365.306 697.739 364.922 698.18 364.647C699.118 363.993 700.433 363.673 702.104 363.673C704.869 363.673 708.039 364.754 711.593 366.909V360.985C708.494 359.306 705.266 358.459 701.911 358.459ZM380.902 358.915C378.045 358.915 375.706 359.697 373.872 361.262C372.031 362.841 371.114 364.883 371.114 367.393C371.122 368.686 371.408 369.962 371.953 371.134C372.666 372.602 373.551 373.98 374.59 375.238C372.067 376.603 370.112 378.083 368.74 379.69C367.368 381.29 366.679 383.104 366.679 385.131C366.666 386.306 366.915 387.469 367.408 388.536C367.901 389.602 368.626 390.546 369.529 391.297C371.448 392.976 373.787 393.815 376.566 393.815C378.812 393.815 380.753 393.502 382.366 392.862C384.205 392.101 385.909 391.049 387.413 389.747L390.591 393.375H399.205L392.282 385.55C394.841 383.018 396.945 379.782 398.58 375.828H392.325C391.159 378.082 389.879 379.91 388.486 381.304L383.753 375.828C385.899 374.419 387.498 372.983 388.543 371.532C389.588 370.088 390.107 368.531 390.107 366.852C390.107 364.534 389.233 362.635 387.484 361.141C385.845 359.741 383.812 359.003 381.397 358.917L380.902 358.915ZM422.371 358.915V393.381H429.031V378.908H435.442C438.776 378.908 441.463 378.004 443.503 376.155C445.543 374.306 446.559 371.909 446.56 368.922C446.56 365.978 445.557 363.573 443.546 361.709C441.534 359.846 438.919 358.915 435.685 358.915H422.371ZM529.568 358.915V364.121H541.794V393.381H548.447V364.114H560.681V358.908L529.568 358.915ZM597.892 358.908V382.961L577.42 358.908L571.577 358.915V393.381H578.088V368.929L598.666 393.381H604.388V358.908H597.892ZM465.282 358.908L451.095 393.375H458.061L461.388 384.982H476.691L480.267 393.375H487.296L472.085 358.908H465.282ZM496.182 358.915V393.375H502.835V378.815H505.251C506.324 378.815 507.263 379.093 508.088 379.626C508.912 380.16 509.765 381.056 510.646 382.335C511.535 383.609 512.935 386.084 514.84 389.747C515.468 390.991 516.161 392.202 516.916 393.375H524.337C523.313 391.796 521.749 388.915 519.652 384.74C518.387 382.329 517.321 380.601 516.468 379.583C515.615 378.566 514.634 377.756 513.532 377.166C515.522 376.326 517.023 375.181 518.032 373.73C519.049 372.272 519.546 370.565 519.546 368.609C519.546 365.728 518.529 363.395 516.489 361.603C514.456 359.811 511.819 358.915 508.578 358.915H496.182ZM618.334 358.908V393.375H640.938V388.161H624.994V378.367H639.922V373.168H624.987V364.114H640.59V358.908H618.334ZM653.782 358.915V393.375H660.429V378.815H662.846C663.926 378.815 664.864 379.093 665.688 379.626C666.513 380.16 667.352 381.063 668.247 382.335C669.143 383.609 670.536 386.084 672.441 389.747C673.072 390.99 673.765 392.201 674.517 393.375H681.938C680.914 391.796 679.35 388.915 677.253 384.74C675.988 382.329 674.922 380.601 674.069 379.583C673.216 378.566 672.235 377.756 671.133 377.166C673.123 376.326 674.623 375.181 675.633 373.73C676.649 372.272 677.154 370.565 677.154 368.609C677.154 365.728 676.131 363.395 674.098 361.603C672.058 359.811 669.42 358.915 666.172 358.915H653.782ZM383.888 385.743C381.684 387.656 379.609 388.616 377.633 388.616C376.518 388.632 375.438 388.226 374.611 387.478C373.766 386.717 373.339 385.785 373.339 384.683C373.352 383.604 373.799 382.573 374.568 381.817C375.588 380.777 376.735 379.868 377.98 379.114L383.888 385.743ZM474.516 379.924H463.398L468.701 366.283L474.516 379.924ZM433.573 364.114C437.653 364.114 439.687 365.7 439.687 368.873C439.686 370.473 439.188 371.674 438.193 372.485C437.191 373.296 435.819 373.708 434.042 373.708L429.038 373.715V364.114H433.573ZM506.979 364.014C508.798 364.014 510.205 364.406 511.193 365.188C512.181 365.97 512.672 367.151 512.672 368.73C512.672 370.245 512.175 371.432 511.18 372.307C510.185 373.175 508.82 373.609 507.071 373.609L502.835 373.616V364.014H506.979ZM664.58 364.014C666.4 364.014 667.8 364.406 668.795 365.188C669.776 365.97 670.273 367.151 670.273 368.73C670.273 370.245 669.775 371.432 668.78 372.307C667.785 373.175 666.42 373.609 664.679 373.609L660.436 373.616V364.014H664.58ZM380.81 363.915C381.847 363.915 382.679 364.228 383.348 364.854C384.016 365.48 384.343 366.262 384.343 367.201C384.343 368.225 383.987 369.107 383.276 369.861C382.573 370.615 381.62 371.369 380.419 372.101C379.609 371.383 378.912 370.529 378.301 369.534C377.689 368.538 377.391 367.656 377.391 366.902C377.382 366.489 377.47 366.079 377.647 365.707C377.825 365.334 378.088 365.008 378.414 364.754C379.086 364.197 379.936 363.898 380.81 363.915ZM692.493 224.996C686.935 224.996 682.307 226.511 678.831 229.633C675.355 232.756 673.621 236.831 673.621 241.838C673.574 245.11 674.662 248.297 676.699 250.857C678.668 253.318 681.412 255.963 685.748 258.616L692.671 262.82C698.251 266.291 701.122 269.96 701.122 273.836C701.122 276.226 700.092 278.218 698.194 279.804C696.304 281.39 693.929 282.051 691.071 282.051C684.617 282.051 678.923 279.071 674.012 272.84V284.406C679.286 288.403 684.902 290.145 691.171 290.266C696.63 290.366 701.009 288.659 704.421 285.472C707.84 282.293 709.603 278.089 709.603 272.983C709.602 265.821 705.984 259.925 698.229 255.288L691.021 251.176C687.894 249.341 685.399 247.4 683.978 245.736C682.577 244.072 682.115 242.492 682.115 240.586C682.115 238.438 683.068 236.632 684.987 235.259C686.892 233.88 689.33 233.189 692.309 233.189C697.583 233.189 702.515 235.402 707.093 239.811V229.469C702.665 226.489 698.343 224.996 692.493 224.996ZM533.25 289.882H535.013L556.081 237.827L576.979 289.889H578.756L604.559 225.7H595.524L578.181 269.547L560.453 225.7H551.803L534.188 269.547L516.652 225.7H507.519L533.25 289.882ZM370.951 289.32H409.903V281.113H380.077V225.708L370.951 225.7V289.32ZM440.39 289.32H481.411V281.113H449.517V261.34H479.634V253.125H449.517V233.908H480.579V225.7H440.39V289.32ZM632.096 289.32H641.236V225.708H632.096V289.32ZM408.041 89.9673V143.061C408.041 148.253 407.735 151.895 406.896 153.474C406.589 154.236 406.125 154.926 405.535 155.498C404.945 156.07 404.242 156.512 403.471 156.795C401.146 157.748 398.587 157.564 396.149 157.592C396.216 157.659 404.373 165.857 404.536 165.992C407.635 165.38 410.252 163.936 412.398 161.689C416.756 156.966 417.09 150.173 417.09 144.092V89.9673H408.041ZM477.466 89.0854C467.699 89.0854 459.625 92.1792 453.228 98.3667C446.83 104.554 443.631 112.371 443.631 121.831C443.631 131.034 446.816 138.695 453.156 144.804C459.504 150.921 467.444 153.979 476.976 153.979C486.955 153.979 495.222 150.921 501.782 144.804C508.336 138.695 511.613 130.97 511.613 121.646C511.613 112.315 508.372 104.554 501.875 98.3667C495.378 92.1791 487.239 89.0855 477.466 89.0854ZM538.126 89.9741V153.239H547.183V125.714H584.166V153.239H593.214V89.9741H584.166V117.521H547.183V89.9741H538.126ZM625.442 89.9741V153.239H633.943V104.519L678.128 153.239H685.918V89.9741H677.317V139.121L632.771 89.9741H625.442ZM477.828 97.6841C484.709 97.6841 490.495 99.9742 495.215 104.547C499.935 109.121 502.294 114.754 502.294 121.461C502.294 128.346 499.934 134.1 495.215 138.715C490.495 143.331 484.617 145.643 477.559 145.643C470.536 145.643 464.686 143.381 460.016 138.851C455.346 134.32 453.007 128.658 453.007 121.831C453.007 114.789 455.324 109.008 459.987 104.477C464.65 99.9465 470.592 97.6841 477.828 97.6841Z" fill="white"/>
</svg>
