<?xml version="1.0" encoding="UTF-8"?>
<svg width="800px" height="729px" viewBox="0 0 800 729" version="1.1" xmlns="http://www.w3.org/2000/svg" xmlns:xlink="http://www.w3.org/1999/xlink">
    <title>Logo + LondonParkour Stacked</title>
    <g id="Logos" stroke="none" stroke-width="1" fill="none" fill-rule="evenodd">
        <g id="Glyph-+-Text-under-stacked" transform="translate(-429.000000, -131.000000)" fill="#ffffff">
            <g id="Logo-+-LondonParkour-Stacked" transform="translate(429.000000, 131.000000)">
                <path d="M0,481.777778 L0,593.777778 L65.7777778,593.777778 L65.7777778,586.561568 L8.89566138,586.561568 L8.89566138,481.777778 L0,481.777778 Z M109.980268,496.810005 C98.7695807,507.566754 92.4444444,522.343016 92.4444444,537.775752 C92.4444444,553.208489 98.7695807,567.984751 109.980268,578.7415 C134.048631,601.160241 171.65272,601.160241 195.721082,578.7415 C206.976754,568.00887 213.333333,553.223594 213.333333,537.775752 C213.333333,522.327911 206.976754,507.542634 195.721082,496.810005 C171.647545,474.390744 134.037797,474.397474 109.972496,496.82535 L109.980268,496.810005 Z M117.882069,572.243105 C108.424983,562.869904 103.111111,550.150481 103.111111,536.886957 C103.111111,523.623432 108.424983,510.90401 117.882069,501.530809 C127.430866,492.043319 140.471163,486.838519 153.980888,487.122612 C167.418862,486.832457 180.384815,492.043336 189.832031,501.530809 C209.315249,521.13722 209.315249,552.636693 189.832031,572.243105 C180.386248,581.733144 167.419687,586.945657 153.980888,586.655141 C140.469063,586.942357 127.425647,581.738814 117.874329,572.250785 L117.882069,572.243105 Z M346.733485,481.777778 L346.733485,579.656221 L259.938335,481.777778 L252.444444,481.777778 L252.444444,593.762524 L261.297674,593.762524 L261.297674,495.899335 L348.307047,593.777778 L355.555556,593.777778 L355.555556,481.793032 L346.710116,481.793032 L346.733485,481.777778 Z M398.23006,593.777778 L440.098299,593.777778 C459.655621,593.777778 474.752066,588.500564 485.387633,577.946136 C506.711501,555.089779 506.64017,520.188524 485.223045,497.414909 C474.477751,486.990155 458.913666,481.777778 438.530788,481.777778 L398.222222,481.777778 L398.222222,593.773964 L398.23006,593.777778 Z M438.614521,488.932005 C452.464937,488.372075 465.970302,493.284485 476.14161,502.58202 C485.833143,511.75798 491.101901,524.577905 490.626292,537.826098 C491.190348,551.191623 485.82195,564.135409 475.924958,573.272598 C465.900059,582.27586 452.717201,587.070538 439.171624,586.639988 L407.111111,586.639988 L407.111111,488.932005 L438.599046,488.932005 L438.614521,488.932005 Z M554.424713,496.810005 C543.214025,507.566754 536.888889,522.343016 536.888889,537.775752 C536.888889,553.208489 543.214025,567.984751 554.424713,578.7415 C578.493075,601.160241 616.097164,601.160241 640.165527,578.7415 C651.421199,568.00887 657.777778,553.223594 657.777778,537.775752 C657.777778,522.327911 651.421199,507.542634 640.165527,496.810005 C616.091989,474.390744 578.482241,474.397474 554.41694,496.82535 L554.424713,496.810005 Z M560.548627,572.243071 C551.091611,562.869879 545.777778,550.150468 545.777778,536.886957 C545.777778,523.623445 551.091611,510.904034 560.548627,501.530842 C570.097355,492.043362 583.137557,486.838566 596.647183,487.122659 C610.086308,486.831897 623.053596,492.042784 632.501933,501.530842 C651.980837,521.138933 651.980837,552.63498 632.501933,572.243071 C623.055029,581.733696 610.087134,586.946216 596.647183,586.655094 C583.135457,586.94231 570.092136,581.738772 560.540888,572.250751 L560.548627,572.243071 Z M791.156564,481.777778 L791.156564,579.656221 L704.381082,481.777778 L696.888889,481.777778 L696.888889,593.762524 L705.736219,593.762524 L705.736219,495.899335 L792.721981,593.777778 L800,593.777778 L800,481.793032 L791.156564,481.793032 L791.156564,481.777778 Z" id="LONDON"></path>
                <path d="M0.00689085005,620.454335 L0.00689085005,727.111111 L19.5700142,727.111111 L19.5700142,682.385365 L38.4130436,682.385365 C47.0552763,682.816598 55.5284835,679.759066 62.1072315,673.835389 C68.0967292,668.149066 71.38745,659.956701 71.0929,651.465251 C71.3502273,643.014552 68.1052672,634.864347 62.2037034,629.138699 C55.8685338,623.199609 47.5894372,620.092817 39.1193558,620.476128 L0,620.476128 L0.00689085005,620.454335 Z M19.5555556,666.630348 L19.5555556,636.444444 L33.1718752,636.444444 C45.4066251,636.444444 51.5240001,641.436667 51.5240001,651.421112 C51.8088719,655.735809 50.1528015,659.941746 47.0485586,662.787432 C43.4453096,665.552505 39.035347,666.911611 34.5792467,666.630348 L19.5555556,666.630348 L19.5555556,666.630348 Z M127.157577,622.222222 L85.3333333,727.111111 L105.882937,727.111111 L115.684739,701.582731 L160.778551,701.582731 L171.305389,727.111111 L192,727.111111 L147.199655,622.23651 L127.157577,622.23651 L127.157577,622.222222 Z M136.983384,645.333333 L154.666667,688 L120.888889,688 L136.983384,645.333333 Z M220.444444,620.470124 L220.444444,727.103848 L240.208928,727.103848 L240.208928,682.075475 L247.377989,682.075475 C250.354481,682.018784 253.280642,682.88165 255.788851,684.555667 C258.805101,686.835708 261.386394,689.684403 263.399673,692.954911 C267.936487,700.36128 272.087646,708.017523 275.835089,715.890331 C277.702246,719.735884 279.753642,723.480882 281.981488,727.111111 L304,727.111111 C300.985354,722.225775 296.347437,713.320567 290.086249,700.395487 C287.447427,694.768896 284.286648,689.425886 280.649247,684.443096 C278.236697,681.390684 275.284395,678.851066 271.953152,676.962576 C277.290871,674.823082 281.926418,671.125863 285.306875,666.311913 C288.351442,661.652049 289.924028,656.11495 289.804495,650.475725 C290.066182,642.191127 286.732934,634.225596 280.732729,628.796742 C274.173671,623.061825 265.797595,620.094413 257.249795,620.477387 L220.444444,620.477387 L220.444444,620.470124 Z M240,666.627962 L240,636.487583 L251.956716,636.487583 C256.283315,636.184675 260.576879,637.483653 264.140181,640.173578 C267.111758,642.925653 268.698588,647.057393 268.411162,651.294224 C268.602273,655.55406 267.020994,659.680951 264.106338,662.529136 C260.757706,665.441334 256.53939,666.903655 252.261303,666.635334 L240.010153,666.635334 L240,666.627962 Z M334.222222,622.222222 L334.222222,727.111111 L353.823121,727.111111 L353.823121,675.604291 L399.772541,727.111111 L424.888889,727.111111 L375.964301,671.625193 L413.709577,622.222222 L391.423435,622.222222 L354.258006,670.650063 L353.823121,670.650063 L353.823121,622.23651 L334.222222,622.23651 L334.222222,622.222222 Z M466.541938,627.524895 C458.152527,632.079608 451.17803,638.962584 446.413309,647.389391 C441.617409,655.64884 439.094498,665.089833 439.11357,674.705772 C438.924563,694.51394 449.645996,712.733447 466.811909,721.775049 C485.131362,731.220742 506.712421,731.262085 525.066074,721.886648 C542.214023,712.635836 552.93514,694.367764 552.888889,674.478671 C552.842338,654.589579 542.036105,636.374454 524.845189,627.2081 C506.402234,618.07497 484.885343,618.197198 466.541938,627.539295 L466.541938,627.524895 Z M464.965231,654.038129 C467.93503,648.527519 472.421804,644.022946 477.872605,641.07955 C489.743384,634.913337 503.790136,634.898685 515.673274,641.040118 C521.156162,643.99441 525.677476,648.510557 528.686158,654.038129 C531.811581,659.813645 533.405624,666.319917 533.311007,672.914998 C533.658317,682.733815 529.940573,692.249294 523.065999,699.136853 C516.05786,705.992162 506.624467,709.662251 496.917136,709.310145 C490.362906,709.421432 483.887616,707.840518 478.094176,704.714599 C472.640937,701.745459 468.135295,697.247653 465.109428,691.752435 C461.958469,685.999975 460.351116,679.502491 460.449409,672.914998 C460.344644,666.337032 461.899617,659.841931 464.965231,654.052468 L464.965231,654.038129 Z M586.684221,622.222222 L586.684221,685.538942 C586.4933,693.603466 588.404041,701.575006 592.220922,708.637839 C595.935548,715.213366 601.542415,720.461835 608.279813,723.670227 C616.06558,727.303487 624.558191,729.082288 633.115972,728.87223 C648.329904,728.87223 660.094955,725.066032 668.411124,717.453638 C676.727293,709.841243 680.886548,698.952053 680.888889,684.786068 L680.888889,622.236563 L660.953957,622.236563 L660.953957,682.147423 C661.216401,687.770599 660.20477,693.379789 657.997773,698.53857 C655.92978,702.582296 652.66036,705.853046 648.658759,707.88138 C643.828564,710.299895 638.493159,711.477646 633.115972,711.312335 C628.016077,711.429915 622.974815,710.182821 618.493042,707.694954 C614.642507,705.626507 611.491037,702.422168 609.448945,698.499134 C607.405029,693.785426 606.456934,688.652718 606.678839,683.502597 L606.678839,622.236563 L586.666667,622.236563 L586.684221,622.222222 Z M716.451402,620.470238 L716.451402,727.103848 L736.206273,727.103848 L736.206273,682.075523 L743.375631,682.075523 C746.352247,682.018833 749.27853,682.881697 751.786844,684.555713 C754.804087,686.834718 757.385657,689.683596 759.397983,692.954948 C763.934986,700.361308 768.086317,708.017543 771.833916,715.890343 C773.701151,719.735892 775.752632,723.480886 777.980572,727.111111 L800,727.111111 C796.985228,722.22578 792.347118,713.320581 786.085669,700.395515 C783.447975,694.768218 780.286991,689.425091 776.648275,684.443142 C774.235624,681.390733 771.2832,678.851118 767.951818,676.96263 C773.28976,674.823139 777.925499,671.125923 781.306097,666.311978 C784.35079,661.652119 785.923442,656.115026 785.803904,650.475807 C786.065602,642.191218 782.732215,634.225696 776.731761,628.796847 C770.172765,623.061313 761.796102,620.093819 753.247849,620.477501 L716.444444,620.477501 L716.451402,620.470238 Z M736,666.627962 L736,636.487583 L747.956716,636.487583 C752.283315,636.184675 756.576879,637.483653 760.140181,640.173578 C763.111758,642.925653 764.698588,647.057393 764.411162,651.294224 C764.602273,655.55406 763.020994,659.680951 760.106338,662.529136 C756.757706,665.441334 752.53939,666.903655 748.261303,666.635334 L736.020306,666.635334 L736,666.627962 Z" id="PARKOUR"></path>
                <path d="M231.111111,0 L515.555556,444.444444 L0,444.444444 L0,0 L231.111111,0 Z M800,0 L800,444.444444 L568.888889,444.444444 L284.444444,0 L800,0 Z" id="Logo"></path>
            </g>
        </g>
    </g>
</svg>