<svg height="100%" viewBox="0 0 121 16" fill="none" xmlns="http://www.w3.org/2000/svg"><path fill-rule="evenodd" clip-rule="evenodd" d="M113.389 3.04C114.365 3.04 115.021 3.152 115.917 3.44C116.813 3.696 117.725 4.112 118.653 4.656L120.381 2.24C118.525 0.768 116.365 0 113.293 0C110.989 0 109.229 0.463999 108.045 1.344C106.829 2.192 106.237 3.376 106.237 4.864C106.237 5.616 106.397 6.272 106.701 6.8C107.005 7.328 107.453 7.792 108.061 8.144C108.701 8.496 109.469 8.784 110.365 8.96C111.293 9.152 112.349 9.264 113.597 9.328C113.954 9.3367 114.206 9.35485 114.447 9.37218C114.65 9.38673 114.844 9.4007 115.085 9.408C115.629 9.424 116.077 9.504 116.445 9.584C116.813 9.68 117.101 9.808 117.277 9.984C117.501 10.16 117.581 10.4 117.581 10.752C117.581 11.36 117.213 12.112 116.525 12.48C115.879 12.849 115.248 12.8486 114.065 12.848C114.016 12.848 113.967 12.848 113.917 12.848C112.765 12.848 111.645 12.672 110.541 12.304C109.453 11.888 108.381 11.296 107.277 10.528L105.613 12.992C106.829 14.032 108.093 14.736 109.437 15.168C110.733 15.6 112.205 15.888 113.789 15.888C116.205 15.888 117.725 15.36 118.973 14.464C120.237 13.568 120.845 12.288 120.845 10.64C120.845 9.888 120.733 9.28 120.493 8.752C120.221 8.272 119.901 7.808 119.389 7.456C118.893 7.136 118.301 6.8 117.549 6.624C116.813 6.448 115.965 6.288 114.973 6.16C114.802 6.13862 114.67 6.11902 114.554 6.10181C114.324 6.0675 114.157 6.04266 113.869 6.032C113.526 5.99653 113.21 5.98727 112.906 5.9784C112.799 5.97526 112.693 5.97218 112.589 5.968C112.376 5.95949 112.173 5.94194 111.976 5.92496C111.802 5.91001 111.634 5.89549 111.469 5.888C111.117 5.872 110.813 5.792 110.509 5.712C109.773 5.488 109.405 5.136 109.405 4.608C109.405 4.16 109.741 3.76 110.397 3.472C111.069 3.2 112.045 3.04 113.389 3.04ZM65.677 5.648C64.957 4.816 64.157 4.16 63.261 3.648C62.365 3.136 61.325 2.896 60.189 2.896C59.421 2.896 58.701 3.024 58.045 3.264C57.389 3.504 56.861 3.856 56.397 4.32C55.933 4.752 55.581 5.312 55.341 5.952C55.101 6.592 54.973 7.232 54.973 7.968C54.973 8.72 55.101 9.392 55.373 10.016C55.613 10.624 55.981 11.152 56.493 11.648C56.957 12.08 57.549 12.464 58.221 12.704C58.909 12.944 59.645 13.072 60.477 13.072C61.533 13.072 62.493 12.848 63.373 12.384C64.253 11.92 65.021 11.248 65.773 10.272L68.349 11.936C67.821 12.656 67.293 13.232 66.717 13.776C66.173 14.304 65.581 14.704 64.909 15.056C64.301 15.408 63.613 15.648 62.893 15.776C62.173 15.936 61.405 16 60.589 16C59.469 16 58.413 15.84 57.469 15.536C56.509 15.232 55.581 14.72 54.685 14.064C53.853 13.456 53.165 12.592 52.669 11.52C52.157 10.464 51.917 9.28 51.917 8C51.917 6.896 52.093 5.92 52.461 4.992C52.829 4.064 53.357 3.264 54.109 2.528C54.925 1.76 55.837 1.12 56.941 0.688003C58.045 0.256003 59.197 0.032002 60.477 0.032002C62.189 0.032002 63.677 0.400003 65.021 1.136C66.317 1.856 67.501 2.976 68.541 4.496L65.677 5.648ZM16.125 15.536V4.848H16.061L10.061 13.504L4.09301 4.848H4.02901V15.536H0.989014V0.496001H4.57301L10.109 8.496L15.645 0.496001H19.229V15.536H16.125ZM35.053 15.536L33.629 12.304H25.549L24.125 15.536H21.005L27.677 0.496001H31.437L38.109 15.536H35.053ZM29.581 3.216L26.813 9.408H32.349L29.581 3.216ZM45.693 15.536V3.344H51.693V0.496001H36.637V3.344H42.637V15.536H45.693ZM83.181 9.088V15.536H86.269V0.496001H83.213V6H74.109V0.496001H71.053V15.536H74.077V9.088H83.181ZM89.853 15.536V0.496001H103.485V3.344H92.877V6.464H100.237V9.312H92.877V12.624H103.485V15.472L89.853 15.536Z" fill="black"></path></svg>