<svg version="1.2" xmlns="http://www.w3.org/2000/svg" viewBox="0 0 480 480" width="480" height="480">
	<title>New Project</title>
	<style>
		.s0 { fill: #ffffff } 
		.s1 { fill: none;stroke: #ffffff;stroke-miterlimit:100;stroke-width: 5 } 
	</style>
	<path id="mBlox" fill-rule="evenodd" class="s0" d="m105.7 231.9q3.8-6.7 9-9.9 5.2-3.2 12.2-3.2 9.5 0 14.7 6.7 5.1 6.6 5.1 18.9v36.6h-10v-36.3q0-8.7-3.1-13-3.1-4.2-9.4-4.2-7.8 0-12.3 5.2-4.5 5.1-4.5 14v34.3h-10v-36.3q0-8.8-3.1-13-3.1-4.2-9.6-4.2-7.6 0-12.1 5.2-4.5 5.2-4.5 14v34.3h-10v-60.7h10v9.4q3.4-5.6 8.2-8.2 4.8-2.7 11.3-2.7 6.6 0 11.2 3.4 4.7 3.4 6.9 9.7zm49 49.1v-80.9h28q12.5 0 19.3 5.2 6.7 5.2 6.7 14.8 0 7.4-3.4 11.8-3.5 4.4-10.2 5.5 8.1 1.7 12.5 7.2 4.5 5.5 4.5 13.7 0 10.9-7.4 16.8-7.3 5.9-20.9 5.9zm27.1-71.9h-16.2v24.4h16.2q8 0 11.9-3 4-3 4-9.2 0-6.2-4-9.2-3.9-3-11.9-3zm1.4 33.3h-17.6v29.6h17.6q8.8 0 13-3.6 4.3-3.7 4.3-11.2 0-7.6-4.3-11.2-4.2-3.6-13-3.6zm34.8 38.6v-84.3h10v84.3zm42.1-62.2q13 0 20.4 8.5 7.4 8.4 7.4 23.4 0 14.9-7.4 23.4-7.4 8.5-20.4 8.5-13.1 0-20.5-8.5-7.4-8.5-7.4-23.4 0-15 7.4-23.4 7.4-8.5 20.5-8.5zm0 8.5q-8.1 0-12.7 6.3-4.7 6.2-4.7 17.1 0 10.9 4.6 17.2 4.7 6.2 12.8 6.2 7.9 0 12.6-6.3 4.7-6.3 4.7-17.1 0-10.8-4.7-17.1-4.7-6.3-12.6-6.3zm67.3-7h11.8l-22 29.5 23.1 31.2h-11.7l-17.7-23.8-17.7 23.8h-11.7l23.5-31.8-21.5-28.9h11.7l16.1 21.6z"/>
	<path id="Shape 2" class="s1" d="m348 256h16c1.7 0 3 1.3 3 3v16c0 1.7-1.3 3-3 3h-16c-1.7 0-3-1.3-3-3v-16c0-1.7 1.3-3 3-3zm0 0h16c1.7 0 3 1.3 3 3v16c0 1.7-1.3 3-3 3h-16c-1.7 0-3-1.3-3-3v-16c0-1.7 1.3-3 3-3zm28 0h16c1.7 0 3 1.3 3 3v16c0 1.7-1.3 3-3 3h-16c-1.7 0-3-1.3-3-3v-16c0-1.7 1.3-3 3-3zm0 0h16c1.7 0 3 1.3 3 3v16c0 1.7-1.3 3-3 3h-16c-1.7 0-3-1.3-3-3v-16c0-1.7 1.3-3 3-3zm28 0h16c1.7 0 3 1.3 3 3v16c0 1.7-1.3 3-3 3h-16c-1.7 0-3-1.3-3-3v-16c0-1.7 1.3-3 3-3zm0 0h16c1.7 0 3 1.3 3 3v16c0 1.7-1.3 3-3 3h-16c-1.7 0-3-1.3-3-3v-16c0-1.7 1.3-3 3-3zm-56-28h16c1.7 0 3 1.3 3 3v16c0 1.7-1.3 3-3 3h-16c-1.7 0-3-1.3-3-3v-16c0-1.7 1.3-3 3-3zm0 0h16c1.7 0 3 1.3 3 3v16c0 1.7-1.3 3-3 3h-16c-1.7 0-3-1.3-3-3v-16c0-1.7 1.3-3 3-3zm28 0h16c1.7 0 3 1.3 3 3v16c0 1.7-1.3 3-3 3h-16c-1.7 0-3-1.3-3-3v-16c0-1.7 1.3-3 3-3zm0 0h16c1.7 0 3 1.3 3 3v16c0 1.7-1.3 3-3 3h-16c-1.7 0-3-1.3-3-3v-16c0-1.7 1.3-3 3-3zm28 0h16c1.7 0 3 1.3 3 3v16c0 1.7-1.3 3-3 3h-16c-1.7 0-3-1.3-3-3v-16c0-1.7 1.3-3 3-3zm0 0h16c1.7 0 3 1.3 3 3v16c0 1.7-1.3 3-3 3h-16c-1.7 0-3-1.3-3-3v-16c0-1.7 1.3-3 3-3zm-28-28h16c1.7 0 3 1.3 3 3v16c0 1.7-1.3 3-3 3h-16c-1.7 0-3-1.3-3-3v-16c0-1.7 1.3-3 3-3zm0 0h16c1.7 0 3 1.3 3 3v16c0 1.7-1.3 3-3 3h-16c-1.7 0-3-1.3-3-3v-16c0-1.7 1.3-3 3-3zm28 0h16c1.7 0 3 1.3 3 3v16c0 1.7-1.3 3-3 3h-16c-1.7 0-3-1.3-3-3v-16c0-1.7 1.3-3 3-3zm0 0h16c1.7 0 3 1.3 3 3v16c0 1.7-1.3 3-3 3h-16c-1.7 0-3-1.3-3-3v-16c0-1.7 1.3-3 3-3z"/>
</svg>