<svg width="271" height="148" viewBox="0 0 271 148" fill="none" xmlns="http://www.w3.org/2000/svg">
<g clip-path="url(#clip0_2_2)">
<path fill-rule="evenodd" clip-rule="evenodd" d="M125.8 0.299988C126.467 0.299988 127.133 0.299988 127.8 0.299988C134.3 1.49999 141.5 2.20001 147.4 4.10001C147 2.00001 143.9 2.6 142.4 1.5C145.5 -0.6 148.3 4.20001 150.8 4.10001C152.2 4.10001 152.4 2.60001 153.7 2.70001C154.8 2.50001 154.8 3.49999 155.4 3.89999C155.2 4.99999 154 3.59999 153.7 4.39999C154.3 5.69999 156.4 5.49999 158 5.79999C157.9 4.69999 156 5.29999 156.3 3.89999C158.2 3.89999 161 6.20001 163.5 5.60001C163.5 3.40001 159.6 5.10001 159.4 3.20001C161.1 2.30001 164.4 3.80001 165.9 4.60001C166.4 5.50001 165.8 5.4 165.4 6C166.8 8 168.6 7.40001 170.2 8.20001C172.2 9.10001 174 11.2 175.5 12.8C178.1 15.4 179.5 18.5 183.2 20C183.7 20.7 183.8 21.9 184.6 22.4C184.8 20.2 182.6 18.9 181.3 17.3C180 15.8 178.9 13.8 177.4 12.5C176 11.3 173.6 10.8 173.4 8.70001C175.6 8.40001 176.6 11 178.2 12C179.5 12.9 181.2 13 182.5 14C187.4 17.6 189.9 23.4 192.6 29.6C193.7 27.8 191.7 25.7 191.6 23.6C191.5 21.2 191.7 18.9 190.9 16.8C192.1 18.2 192.4 20.6 193 22.6C193.4 23.4 193.6 22.1 194.2 22.4C194.6 23.5 194.5 25.2 194.5 26.7C195.4 26.8 194.8 25.3 195.9 25.5C196.1 29.7 196.5 33.3 197.4 36.3C198.1 33.6 198.9 30.4 198.6 27.9C200.2 28 200.4 29.7 201.4 30.5C200.8 28.2 200.2 26 200 23.3C205.2 27.7 207.2 35.3 208.6 43.5C209.1 44.1 209.7 42.8 210.3 42.8C212 43.9 211.3 46.2 211.3 48.8C212.3 48.4 212.1 46.9 212.2 45.6C214.7 50.4 210.7 56 211.3 62C213.4 61.8 213.6 57.7 214.6 55.7C216 59.2 213.8 63.4 213 66.3C215.6 65.5 214.9 61.4 216.6 59.8C216.9 64.7 214.1 68.4 212.5 72C216.6 68.9 217.1 62.1 219.4 57.2C221.1 58.8 219.9 64.3 218.5 67C218.1 67.7 217.2 68.1 216.8 68.9C215.2 71.8 215.1 75.6 213.7 78.8C212.1 82 209.6 83.7 208.2 86.2C208.2 86.8667 208.2 87.5 208.2 88.1C205.5 91.3 202 93.8 200.2 98C200.4 98.5 201.6 98 202.2 98.2C200.2 102.9 195.3 104.6 191.1 107.1C193.8 107.9 195.4 105.5 198.1 105.4C195.4 108.6 191.6 110.6 186.3 111.2C188.3 112.8 191.5 110.4 194 111.2C191.9 114 185.7 112.8 182 114C182.1 114.8 183.6 114.3 184.2 114.8C181.1 117.5 173.7 116 170.2 118.4C171.8 119 174 118.3 175.8 118.4C174.5 120.4 170.2 119.4 167.6 120C166.9 119.9 167.2 118.9 166.9 118.4C163.8 120 162.1 117 159.9 116.7C158.3 116.5 157.7 117.8 156.1 118.1C154 118.5 153.1 117.4 151 117.4C151.2 118.8 152.9 118.6 153.7 119.3C150.9 120.4 148.1 117.6 146 116.7C145.2 116.3 144.1 116.6 143.4 116.2C141.4 115.3 141.3 113.5 139.5 113.1C137 112.5 134.5 113.8 133 111.4C132.8 112.4 134.7 113.4 135.4 114.3C136.2 113.9 137.4 114 138.6 114C140 114.7 140.9 116.4 142.4 117.2C143.4 117.6 145.1 117.1 145.5 118.6C133.6 119.5 130.5 111.7 124.9 106.4C126 109.7 128.3 113 131.4 115.2C132.8 116.3 135.1 116.7 135.9 118.6C131.7 117.5 128.6 114.9 126.1 112.1C124.3 110.1 122.1 106.7 121.3 104C121.1 103.3 121.3 102.6 121 102C119.8 99.3 116 98.3 115.8 95.1C115.4 94.5 114.3 94.6 113.8 94.1C114 93.4 113.6 93.2 113.6 92.7C111.1 90.2 111.1 85.3 109.5 81.9C108.8 81.7 109.1 82.5 108.3 82.4C109.4 79.5 107.6 77.5 107.4 74.2C111.5 76.7 113.1 82 116.5 85.5C119.5 88.5 123.3 91.2 127.3 93.6C130.9 95.9 135.6 99.2 140 99.9C141.1 100 142 99.7 142.9 99.9C145 100.2 146 101.3 148.9 101.1C153.4 100.7 158.3 98.9 162.6 97C169 94.1 175.9 85.6 176.5 78C176.8 73.7 177.7 69 177 64.6C175.7 57.5 172.7 50.7 169.5 45.2C166.2 39.3 161.4 35.1 157 30.8C148.2 26.2 138.2 21.3 125.8 20.7C118.8 20.3 111.2 20.9 104 21.9C97.1 22.8 90.8 27 83.8 29.1C77 31.1 71.6 35.3 66.1 38.4C57.2 43.4 49.7 49 41.4 54.8C38.7 56.6 36.2 58.9 33.7 60.5C32.3 61.4 30.9 61.7 29.8 62.4C26.4 64.8 23.1 67.9 19.5 70.6C16 73.2 12.3 75.7 9 78.3C6 80.6 3.79999 84.2 -0.200012 84.8C-0.200012 84.4667 -0.200012 84.1333 -0.200012 83.8C1.29999 82.5 2.69999 81.3 3.89999 79.7C7.99999 77.7 10.4 74.1 13.8 71.1C16.6 68.5 20 66.7 21.9 63.4C15.9 65.6 13.4 72.5 7.29999 73.7C8.49999 70.8 11.7 70 14 68.2C16.4 66.2 18.2 63 20.2 60.8C24.8 55.8 30 52.3 36.1 49C39 47.4 41.4 44.8 44.2 43.2C45.7 42.4 47.7 42.3 49 41.3C49.7 40.8 50 39.7 50.7 39.2C51.3 38.7 52.1 38.6 52.6 38.2C53.6 37.4 54.1 36.1 55 35.3C58.6 32.2 63.1 31.1 66.3 27.9C63.4 29.3 60.6 29.7 58.2 31.2C55.1 33.1 52.9 36.3 49 37C46.3 40.8 41.6 42.3 38 45.4C35.1 47.8 32.8 51 29.1 51.4C30.7 47.7 35 46.9 37.8 44.7C38.9 43.7 39.5 42.2 40.6 41.3C42.6 39.6 45.3 38 47.6 36.8C48.4 36.3 49.7 36.1 50.5 35.6C51.4 34.9 52 33.6 52.9 32.9C53.9 32 55.3 31.8 56.5 31C57.9 30 58.9 28.4 60.3 27.4C67.1 22.5 76.7 22.9 83.4 16.6C86.7333 15.3333 90.0667 14.0667 93.4 12.8C89.2 12.8 85.1 16.3 80.7 16.1C83.2 12.9 87.2 11.3 91.5 9.60001C93.6 8.80001 96.1 8.3 98.5 8C101 7.6 103.8 8 105.9 6.5C105.2 5 101.8 7.50001 101.4 5.60001C103.2 4.50001 108.5 4.49999 110.7 5.29999C110.2 6.19999 108.1 5.5 107.6 6.5C111.1 6.9 118.5 7.20001 121.5 5.60001C120.3 5.10001 118.4 5.79999 116.7 5.79999C115.3 5.79999 113.3 5.80001 112.6 4.60001C114.4 2.80001 117.3 3.90001 120.3 4.10001C122.8 4.30001 125.3 3.79999 127.3 3.89999C129.4 3.99999 131.8 5.50001 133 4.10001C129 3.00001 123.1 3.7 119.6 2C122 1.7 124.9 1.99999 125.8 0.299988ZM203.4 36.5C203.3 34.7 202.4 33.8 201.9 32.4C202.3 33.9 202 36 203.4 36.5Z" fill="white"/>
<path d="M270.6 64.6C270.6 64.8666 270.6 65.1333 270.6 65.4C266.2 71.2 259 74.1 255 80.2C257.1 79.4 259 77.7 261 76.4C262.9 75.1 264.7 73.1 267.2 73C265.4 74.7 263.6 76.3 261.7 78.1C259.7 80 257.4 80.9 255.4 82.4C254.7 83 253.6 84 254 85.3C255.5 85.1 256.5 83.3 257.8 83.8C254.4 87.5 248.3 90.6 242.7 93C242.1 94.1 241.5 95.3 239.8 95.4C239.8 97.1 238.1 97.2 237.2 98C236.5 98.6 236.4 99.6 235.8 100.2C233.1 102.5 229.1 104.1 225.9 106.2C222.8 108.2 220 110.9 217 113.1C214 115.4 210.9 117.6 207.9 119.8C204.9 122 201 123.5 199.3 127C202.2 125 205.7 123.5 209.1 122C209.6 121.5 209.8 120.6 210.3 120.1C213.6 118.2 216.5 114.7 219.7 113.6C217.3 118.7 213.2 120.8 208.6 123.9C203.2 127.6 196.4 132.7 189.2 133.3C186.1 133.5 184.4 133.5 184.4 135.9C190.6 135.6 195.3 133.5 199.8 131.4C204.3 129.2 207.7 125.9 212 124.2C209.1 128.1 204.1 129.3 200.2 132.3C199.2 133.1 198.7 134.1 197.6 134.7C194.4 136.5 189.3 138.1 185.1 138.8C179.6 139.7 175.2 139.2 171 141.4C173.7 142.2 177.3 140.9 179.6 141.4C178.8 143.1 176.1 143.4 173.8 143.6C170.2 143.8 165.9 143.4 162.3 143.6C161.4 143.1 159.4 141.9 158.5 143.1C158.7 144.5 161.4 143.4 161.4 145C160.3 145.9 157.6 145.6 156.8 144.8C156.5 143.8 157.3 143.2 156.8 142.6C154.1 142.7 151.5 142.8 150.3 144.3C151.4 145.9 154.1 145.9 155.6 147.2C151.9 147.2 149.7 145.7 145.5 146.2C144.8 146.7 144.7 147.8 143.4 147.7C142.8 147.4 143.5 145.9 142.4 146.2C140.9 146.4 140.7 147.9 138.8 147.7C137.8 145.9 135.4 146.8 134 145.3C133.6 145.9 133.2 146.6 132.3 146.7C132.1 143.3 128.1 145.6 127.3 146C126.8 145.5 127.3 144.1 126.6 143.8C124.5 145 123.8 142.2 123 143.1C123.4 144.1 124.7 145.5 124.4 146.5C122.3 145.4 121.3 143.3 118.4 143.1C118.1 145.3 120.8 145.6 120.6 147C115.5 143.2 109.9 140 104.7 136.4C106.3 140.7 112.5 141.7 114.3 145C105.1 141.6 99.7 134.3 93.4 128C95 131.4 98.3 134.3 99.9 136.9C94 133.5 91 127.4 86 123.2C88.8 131.2 95.5 135.3 101.8 139.8C92.5 138.6 89.4 131.2 83.8 126.3C84.9 127.9 85.4 130.2 86.7 131.6C87.7 132.7 89.4 133.1 90.3 134.2C90.9 135 91.1 136.2 91.8 136.9C93.6 138.6 97.3 138.6 98 141.2C91.9 139.6 87.8 134.8 84.3 129.9C81 125.3 76.9 119.6 74.7 114.6C74.3 113.6 74.5 112.2 73.3 111.7C72.8 117.1 77.3 120.9 78.6 124.6C76 122.5 75 118.9 72.3 117C72.2 114.2 70.2 113.2 69.4 111.2C68.7 109.2 69.7 106.5 67.5 105.4C67.8 108.9 68.9 113.4 69.9 116.2C67.4 113.6 65.9 110 66.3 104.5C65.7 103.4 64.7 102.6 63.9 101.6C64.2 99.8999 62.8 98.5 62.5 96.8C61.8 93.3 63.6 89.5 62.5 86.5C59.9 88.8 62.7 94.6 61.3 97.8C60.7 92.8 60.1 85.4 61.5 81C59.9 81.1 60.1 83.1 59.4 84.1C58 81.3 59.9 78.2 60.3 75.7C58.2 76.8 57.2 79.5 56.7 82.4C56.6 83.4 57.3 85 56 85.5C54.4 84.3 56.1 79.8 54.8 78.3C53.2 79.7 54.9 83.1 52.9 84.1C52.8 80.7 53.1 78 54.1 75.4C54.9 73.2 57 71.7 57.7 69.7C58.5 67.2 58 64.8 60.3 63.7C59.9 58 65.9 57.1 66.3 51.4C67.6 50 69.1 48.8 70.9 47.8C71.1 48.7 69.2 49.7 70.4 50C72.1 49.3 72.4 47.8 73.5 46.6C78.1 41.9 85.2 39 89.8 34.9C90.4 34.9 90.9667 34.9 91.5 34.9C91.6 32.2 96.1 33.8 97 32C97.1 30.6 95.7 32.2 95.8 30.8C97.1 30.8 97.9 30.3 99.2 30.3C99.3 31.2 98.5 32.1 99.7 32.2C101.7 32.3 104.1 30.7 107.4 31.3C108.1 33.8 114.2 33.3 115.3 31.5C113.8 31 111.5 31.3 110.2 30.6C112.4 29 117.1 31.5 118.2 29.1C119 30.9 122 30.6 124.6 30.6C124.7 31.3 124.1 31.3 124.2 32C125.3 32.1 125.7 31.6 126.8 31.8C127.3 32.6 127.8 33.5 129.4 33.2C130.5 33.6 129.8 32.2 130.6 32.5C137.3 32.3 141.1 36.2 144.8 39.9C153.9 49 162.2 60.5 164.2 74.5C160.1 68.5 155.1 62.5 148.9 57.7C142.8 52.9 135.1 48.4 126.8 47.8C117.3 47.2 109.8 50.7 104.2 55.5C98.6 60.4 94.7 67 94.6 76.9C94.6 77.2 94.6 77.5 94.6 77.8C97.1 100.6 106.1 114 123 122C131.1 125.8 142 128 152.7 128C163.2 128 173.8 125.3 182.7 122C191 118.9 199.2 114.6 206.7 109.8C210.4 107.4 213.8 104.7 217.5 102.6C232.8 93.4999 246.7 82.8 260.2 72.6C263.7 69.9 266.6 66.4 270.6 64.6Z" fill="white"/>
</g>
<defs>
<clipPath id="clip0_2_2">
<rect width="271" height="148" fill="white"/>
</clipPath>
</defs>
</svg>
