<svg width="595" height="103" viewBox="0 0 595 103" fill="none" xmlns="http://www.w3.org/2000/svg">
<path d="M18.7636 69.4567C18.7636 83.1318 28.6874 87.113 41.8484 87.113C55.3837 87.113 60.5733 79.6194 60.5733 73.7716C60.5733 70.2683 57.9402 65.5927 53.95 64.0597C47.1868 61.4987 38.8366 58.807 25.3779 55.1729C6.65755 50.1502 4.24537 39.1488 4.24537 28.9635C4.24537 10.96 22.3706 0.896454 39.8871 0.896454C60.3389 0.896454 77.6345 11.0863 77.6345 31.4343H60.3389C59.2117 19.725 51.0148 15.8746 39.283 15.8746C31.3926 15.8746 23.0424 19.725 23.0424 26.9796C23.0424 33.7789 25.9731 37.3859 32.9662 39.266C34.5443 39.6267 56.051 45.5918 61.164 47.0977C74.023 50.7453 79.8844 61.7152 79.8844 71.905C79.8844 92.6002 60.7131 102.429 41.3119 102.429C19.6518 102.429 1.30564 93.6597 0.931412 69.4567H18.7636Z" fill="white"/>
<path d="M134.188 53.4055C131.861 48.3963 128.475 41.9713 120.504 42.0705C112.46 42.1697 103.289 46.8633 103.289 65.2275C103.289 74.9393 106.373 87.5909 119.909 87.5909C126.221 87.5909 133.367 84.8812 134.648 75.5345H151.488C149.612 92.0185 137.578 101.73 119.909 101.73C98.8527 101.73 85.092 86.7523 85.092 65.2275C85.092 46.1644 97.5768 28.6118 120.436 28.6118C132.466 28.6118 147.205 33.8826 150.51 53.4055H134.188Z" fill="white"/>
<path d="M157.575 5.57202H174.789V36.4616H175.168C181.106 32.841 186.598 28.8508 195.994 28.8508C211.265 28.8508 219.458 40.799 219.458 54.5958V99.9855H202.536V58.6807C202.536 54.2486 199.38 43.8424 190.209 43.8424C181.332 43.8424 174.789 48.7479 174.789 61.4987V99.9855H157.575V5.57202Z" fill="white"/>
<path d="M265.709 65.4619C265.709 44.0543 278.946 28.959 301.576 28.959C324.286 28.959 337.741 44.8794 337.741 65.4619C337.741 86.0534 323.227 102.326 301.576 102.326C279.992 102.326 265.709 86.2879 265.709 65.4619ZM319.769 65.4619C319.769 53.3063 314.584 42.0705 301.576 42.0705C289.168 42.0705 283.604 54.2396 283.604 65.4619C283.604 77.8655 288.87 89.2006 301.576 89.2006C313.984 89.2006 319.769 77.054 319.769 65.4619Z" fill="white"/>
<path d="M412.41 99.981H395.57L393.987 96.117H393.762C387.224 99.6203 384.289 102.213 375.416 102.213C353.156 102.213 343.385 83.24 343.385 67.4638C343.385 40.5555 360.077 28.729 372.936 28.729C381.886 28.729 386.174 30.1358 393.992 35.402L394.97 34.9466V5.54498H412.415V99.981M377.521 87.9291C391.138 87.9291 395.421 76.2334 395.421 65.5927C395.421 50.0375 387.377 43.5809 377.751 43.5809C370.082 43.5809 361.732 50.3711 361.732 65.9399C361.732 70.8454 363.986 87.9291 377.521 87.9291Z" fill="white"/>
<path d="M437.456 70.151C437.456 78.1 442.263 87.4467 454.296 87.4467C463.318 87.4467 466.249 83.1318 469.712 78.9206H487.458C483.928 94.1422 469.712 101.73 454.301 101.73C432.041 101.73 417.906 85.4808 417.906 65.5882C417.906 45.5873 432.722 28.3773 453.773 28.3773C469.487 28.3773 489.492 39.8431 488.216 70.151H437.456ZM469.631 57.0396C467.525 45.5918 460.158 42.5349 453.764 42.5349C445.644 42.5349 437.452 47.4449 437.452 57.0396H469.631Z" fill="white"/>
<path d="M494.073 30.8391H511.594V38.3102H511.824C517.69 32.8365 520.467 30.4784 526.486 29.7796C530.247 29.4324 530.995 30.1267 532.42 30.2575V44.5142C517.685 44.5142 511.445 52.2287 511.445 63.5863V99.972H494.073V30.8391Z" fill="white"/>
<path d="M548.886 77.5048C551.6 87.6946 559.116 89.0969 567.088 88.8669C572.954 88.7542 577.909 85.1201 577.909 80.5573C577.909 73.4109 563.774 71.7877 559.716 71.2106C548.358 69.3304 534.9 64.6413 536.554 49.3251C536.554 34.8069 553.62 29.207 566.484 29.207C580.997 29.207 593.631 37.2822 593.703 50.7408H578.666C576.556 44.5187 573.021 42.0705 565.428 41.4888C560.992 41.1281 552.421 43.3555 552.569 48.6127C552.642 56.3407 563.995 55.9935 575.578 58.5545C586.935 61.129 594.902 66.7605 594.902 80.6835C594.902 91.9013 581.448 101.96 566.853 101.96C546.325 101.96 535.571 95.3009 533.317 77.5003H548.886" fill="white"/>
<path d="M227.132 30.8391H244.653V38.3102H244.878C250.744 32.8365 253.526 30.4784 259.464 29.7796C263.224 29.4324 264.054 30.1267 265.479 30.2575V44.5142C250.739 44.5142 244.504 52.2287 244.504 63.5863V99.972H227.132V30.8391Z" fill="white"/>
</svg>
