<svg width="215" height="129" viewBox="0 0 215 129" fill="none" xmlns="http://www.w3.org/2000/svg">
<path fill-rule="evenodd" clip-rule="evenodd" d="M93.399 3.35386C93.399 1.32992 92.0631 0.484619 90.3818 0.484619H79.8368C75.6396 0.484619 72.657 2.57655 72.657 7.70973V98.1896C72.657 100.203 73.989 101.055 75.6729 101.055H86.2099C90.4204 101.055 93.4003 98.9589 93.4003 93.8204L93.399 3.35386ZM213.274 36.4368C213.683 35.5595 214.118 34.7289 214.118 33.8796C214.118 32.1703 212.878 31.333 211.165 31.333H198.35C195.788 31.333 194.627 32.2396 193.695 34.3249L175.624 74.4357L150.42 34.7289C148.863 32.2716 147.217 31.333 143.48 31.333H128.249C125.079 31.333 123.389 32.1703 121.499 34.1902L94.6736 63.012L118.738 98.0842C120.132 100.104 121.293 101.056 123.389 101.056H137.727C139.867 101.056 141.123 100.203 141.123 98.3976C141.123 97.2883 140.587 96.5723 139.868 95.547L118.738 64.26L134.776 46.9792L166.461 93.8217L152.453 123.429C152.071 124.299 151.628 125.142 151.628 125.979C151.628 127.689 152.876 128.517 154.586 128.517H167.299C169.885 128.517 170.997 127.622 171.958 125.542L213.274 36.4368ZM26.2758 55.4389C22.0706 54.4989 20.7666 53.3163 20.7666 51.171C20.7666 49.5284 22.0706 48.2205 25.8704 48.2205H56.6255C61.7507 48.2205 63.8199 45.2286 63.8199 41.0354V34.3556C63.8199 32.6716 62.9866 31.3317 60.9787 31.3317H24.9425C8.89364 31.3317 0.468567 40.626 0.468567 52.4777C0.468567 63.0093 6.9537 69.4265 19.9 72.313L40.5713 76.9356C44.7739 77.8795 46.0858 79.0648 46.0858 81.2061C46.0858 82.8527 44.7739 84.162 40.9806 84.162H8.92564C3.78846 84.162 1.71653 87.1393 1.71653 91.3351V98.0269C1.71653 99.7069 2.55384 101.055 4.57111 101.055H39.7353C58.7201 101.055 66.3825 91.7498 66.3825 80.7421C66.3825 69.3598 59.8134 62.956 46.9485 60.0708L26.2758 55.4389Z" fill="white"/>
</svg>
