<svg class="" xmlns="http://www.w3.org/2000/svg" viewBox="0 0 56 56" focusable="false" aria-hidden="true">
    <rect class="rect" x="8" y="8" width="40" height="40" fill="transparent"></rect>
    <path fill="white" fill-rule="evenodd" clip-rule="evenodd" d="M56 56H0V0H56V56ZM30.3 18.8H41.3V21.3L36.7 25.9C39.8 26.1 42 28.1 42 31.3C42 35.4 38.6 37.2 35 37.2C33.3 37.2 31.8 36.7 30.3 36.1V33.5C31.7 34.4 33.3 34.8 34.9 34.8C37.2 34.8 39.4 33.8 39.4 31.2C39.4 28.8 37.5 27.9 35.3 27.9H33.3V25.9L38 21.1H30.3V18.8ZM14 18.8H24.9H25V21.3L20.4 25.9C23.5 26.1 25.7 28.1 25.7 31.3C25.7 35.4 22.3 37.2 18.7 37.2C17 37.2 15.5 36.7 14 36.1V33.5C15.4 34.4 17 34.8 18.6 34.8C20.9 34.8 23.1 33.8 23.1 31.2C23.1 28.8 21.2 27.9 19 27.9H17V25.9L21.7 21.1H14V18.8Z"></path>
</svg>