<svg width="400" height="176" viewBox="0 0 400 176" fill="none" xmlns="http://www.w3.org/2000/svg">
<g clip-path="url(#clip0_3_57)">
<path d="M398.88 151.45C399.245 151.159 399.536 150.788 399.732 150.364C399.938 149.78 400.029 149.162 399.999 148.544V88.9465C400.027 88.3172 399.937 87.6881 399.732 87.0924C399.544 86.6784 399.25 86.3212 398.88 86.0568C397.978 85.3664 395.885 85.0212 392.6 85.0212C389.315 85.0212 387.188 85.3664 386.219 86.0568C385.849 86.3212 385.555 86.6784 385.367 87.0924C385.179 87.6914 385.105 88.3203 385.15 88.9465V148.578C385.097 149.106 385.163 149.639 385.342 150.139C385.521 150.639 385.809 151.093 386.185 151.467C387.087 152.158 389.214 152.503 392.566 152.503C395.918 152.503 398.023 152.151 398.88 151.45ZM354.416 151.784C357.518 150.777 360.366 149.113 362.768 146.907C364.949 144.888 366.62 142.38 367.645 139.591C368.691 136.613 369.211 133.476 369.182 130.32V88.9463C369.246 88.4122 369.186 87.8705 369.006 87.3634C368.827 86.8564 368.532 86.3977 368.146 86.0232C367.166 85.3328 365.073 84.9876 361.866 84.9876C358.659 84.9876 356.532 85.3328 355.485 86.0232C355.099 86.2738 354.796 86.6345 354.617 87.0588C354.394 87.6631 354.281 88.3022 354.283 88.9463V130.136C354.272 131.842 353.984 133.534 353.431 135.147C352.76 136.975 351.432 138.488 349.706 139.39C347.363 140.604 344.742 141.18 342.106 141.06C340.216 141.1 338.332 140.835 336.527 140.275C335.116 139.832 333.825 139.072 332.752 138.054C331.76 137.086 331.016 135.895 330.581 134.579C330.11 133.14 329.879 131.634 329.896 130.12V88.9455C329.96 88.4114 329.9 87.8697 329.72 87.3627C329.541 86.8556 329.246 86.3969 328.86 86.0224C327.88 85.332 325.787 84.9868 322.58 84.9868C319.373 84.9868 317.246 85.332 316.199 86.0224C315.813 86.2731 315.51 86.6338 315.33 87.058C315.153 87.6705 315.085 88.3095 315.13 88.9455V130.303C315.101 133.458 315.621 136.595 316.667 139.573C317.663 142.38 319.312 144.91 321.477 146.956C323.885 149.138 326.733 150.779 329.829 151.766C337.847 154.105 346.365 154.105 354.383 151.766L354.416 151.784ZM281.556 151.45C281.915 151.162 282.197 150.789 282.374 150.364C282.567 149.777 282.651 149.161 282.625 148.544V97.6815H297.491C298.393 97.7063 299.293 97.5994 300.164 97.3642C300.507 97.2501 300.824 97.0687 301.096 96.8307C301.369 96.5926 301.591 96.3027 301.75 95.9777C302.284 94.8199 302.634 93.5856 302.786 92.3197C303 91.0833 303.123 89.8328 303.153 88.5782C303.174 87.9759 303.107 87.3738 302.953 86.7909C302.823 86.363 302.545 85.9956 302.168 85.7553C301.847 85.572 301.497 85.4475 301.132 85.3879C300.485 85.295 299.832 85.2559 299.178 85.271H252.893C251.991 85.2462 251.091 85.3531 250.22 85.5883C249.862 85.6934 249.529 85.8706 249.242 86.109C248.955 86.3474 248.719 86.642 248.55 86.9747C248.035 87.981 247.685 89.064 247.515 90.1817C247.268 91.5431 247.145 92.9239 247.147 94.3074C247.15 94.9361 247.246 95.5609 247.431 96.1615C247.563 96.5977 247.856 96.9677 248.25 97.1971C249.185 97.6013 250.207 97.7678 251.223 97.6815H267.776V148.51C267.709 149.051 267.777 149.601 267.972 150.11C268.167 150.62 268.484 151.074 268.895 151.433C269.797 152.123 271.924 152.468 275.276 152.468C278.627 152.468 280.715 152.134 281.539 151.466L281.556 151.45Z" fill="white"/>
<path d="M218.96 19.309C218.96 24.4301 216.926 29.3414 213.304 32.9625C209.683 36.5837 204.772 38.618 199.651 38.618C194.53 38.618 189.619 36.5837 185.997 32.9625C182.376 29.3414 180.342 24.4301 180.342 19.309C180.342 14.1879 182.376 9.27662 185.997 5.65548C189.619 2.03434 194.53 0 199.651 0C204.772 0 209.683 2.03434 213.304 5.65548C216.926 9.27662 218.96 14.1879 218.96 19.309ZM10.34 48.79H62.438C67.5826 48.79 71.391 50.4603 72.894 57.6595C74.5643 65.7272 73.9296 71.3395 64.8096 71.9745L48.4406 73.1437C60.5006 149.144 130.822 173.934 169.121 92.0347C175.468 78.4887 177.472 76.0167 184.471 77.7367C193.875 80.0752 195.161 84.9525 190.651 98.5657C157.595 199.516 46.3208 209.646 24.4908 74.8637L11.2448 75.8158C0.437762 76.5841 0.00376283 67.4641 0.00376283 62.4528C-0.0296442 52.3808 3.69516 48.7898 10.3428 48.7898L10.34 48.79Z" fill="white"/>
</g>
<defs>
<clipPath id="clip0_3_57">
<rect width="400" height="175.19" fill="white"/>
</clipPath>
</defs>
</svg>
