<svg width="509" height="98" viewBox="0 0 509 98" fill="none" xmlns="http://www.w3.org/2000/svg">
<path d="M39.2999 16.2001H46.4999V20.0001H46.6999C48.5999 16.9001 51.8999 15.4001 55.0999 15.4001C63.0999 15.4001 65.0999 19.9001 65.0999 26.7001V43.6001H57.5999V28.2001C57.5999 23.7001 56.2999 21.4001 52.7999 21.4001C48.6999 21.4001 46.9999 23.7001 46.9999 29.3001V43.7001H39.4999V16.2001H39.2999Z" fill="white"/>
<path d="M76.6 13.3002H69.1V5.7002H76.6V13.3002ZM69.1 16.2002H76.6V43.7002H69.1V16.2002Z" fill="white"/>
<path d="M96.5999 43.8002H88.1999L78.7999 16.3002H86.6999L92.5999 35.0002H92.6999L98.4999 16.2002H106L96.5999 43.8002Z" fill="white"/>
<path d="M113.7 31.8C113.9 36.6 116.2 38.8 120.4 38.8C123.4 38.8 125.9 36.9 126.3 35.2H132.9C130.8 41.7 126.3 44.5 120.1 44.5C111.5 44.5 106.1 38.5 106.1 30C106.1 21.7 111.8 15.5 120.1 15.5C129.4 15.5 133.9 23.4 133.4 31.8H113.7ZM125.9 27C125.2 23.2 123.6 21.1 119.9 21.1C115.1 21.1 113.8 24.8 113.6 27H125.9Z" fill="white"/>
<path d="M136.3 16.2001H143.5V21.3001H143.6C145 17.8001 148.7 15.4001 152.3 15.4001C152.8 15.4001 153.5 15.5001 153.9 15.7001V22.7001C153.2 22.5001 152.1 22.4001 151.2 22.4001C145.7 22.4001 143.8 26.4001 143.8 31.2001V43.6001H136.3V16.2001Z" fill="white"/>
<path d="M161.9 34.8C162 38.1 164.7 39.4 167.7 39.4C169.9 39.4 172.6 38.5 172.6 35.9C172.6 33.6 169.5 32.8 164.1 31.6C159.8 30.6 155.4 29.1 155.4 24.3C155.4 17.3 161.4 15.5 167.3 15.5C173.3 15.5 178.8 17.5 179.4 24.3H172.2C172 21.4 169.8 20.6 167.1 20.6C165.4 20.6 162.9 20.9 162.9 23.2C162.9 25.9 167.1 26.3 171.4 27.3C175.8 28.3 180.1 29.9 180.1 35C180.1 42.2 173.8 44.6 167.6 44.6C161.2 44.6 155 42.2 154.7 34.9H161.9V34.8Z" fill="white"/>
<path d="M191 13.3002H183.5V5.7002H191V13.3002ZM183.5 16.2002H191V43.7002H183.5V16.2002Z" fill="white"/>
<path d="M205.1 16.2H210.6V21.3H205.1V34.9C205.1 37.5 205.7 38.1 208.3 38.1C209.1 38.1 209.8 38 210.6 37.9V43.8C209.3 44 207.7 44.1 206.2 44.1C201.6 44.1 197.6 43 197.6 37.6V21.3H193V16.2H197.6V8H205.1V16.2Z" fill="white"/>
<path d="M228.3 47.2001C226.7 51.6001 224.1 53.4001 218.9 53.4001C217.4 53.4001 215.8 53.3 214.3 53.1V47C215.7 47.1 217.2 47.3 218.7 47.3C221.3 47 222.1 44.3 221.3 42.1L211.7 16.3H219.8L226 35.1H226.1L232.1 16.3H239.9L228.3 47.2001Z" fill="white"/>
<path d="M263.5 15.5C272.1 15.5 277.7 21.3 277.7 30C277.7 38.7 272.1 44.5 263.5 44.5C254.9 44.5 249.3 38.8 249.3 30C249.3 21.2 254.9 15.5 263.5 15.5ZM263.5 38.8C268.6 38.8 270.2 34.4 270.2 30C270.2 25.6 268.7 21.2 263.5 21.2C258.4 21.2 256.9 25.6 256.9 30C256.8 34.4 258.4 38.8 263.5 38.8Z" fill="white"/>
<path d="M282.6 21.3002H278.1V16.2002H282.6V14.1002C282.6 9.3002 285.6 5.7002 291.8 5.7002C293.1 5.7002 294.5 5.9002 295.8 5.9002V11.5002C294.9 11.4002 294 11.3002 293 11.3002C291 11.3002 290.1 12.2002 290.1 14.4002V16.0002H295.3V21.1002H290.1V43.6002H282.6V21.3002Z" fill="white"/>
<path d="M45.9999 79.2001C46.1999 84.0001 48.4999 86.2001 52.6999 86.2001C55.6999 86.2001 58.1999 84.3001 58.5999 82.6001H65.1999C63.0999 89.1001 58.5999 91.9001 52.3999 91.9001C43.7999 91.9001 38.3999 85.9001 38.3999 77.4001C38.3999 69.1001 44.0999 62.9001 52.3999 62.9001C61.6999 62.9001 66.1999 70.8001 65.6999 79.2001H45.9999ZM58.2999 74.4001C57.5999 70.6001 55.9999 68.5001 52.2999 68.5001C47.4999 68.5001 46.1999 72.2001 45.9999 74.4001H58.2999Z" fill="white"/>
<path d="M68.3999 63.6H75.5999V68.7H75.6999C77.0999 65.2 80.7999 62.8 84.3999 62.8C84.8999 62.8 85.5999 62.9 85.9999 63.1V70.1C85.2999 69.9 84.1999 69.8001 83.2999 69.8001C77.7999 69.8001 75.8999 73.8 75.8999 78.6V91H68.3999V63.6Z" fill="white"/>
<path d="M105.1 68.7001H99.6V82.3001C99.6 84.9001 100.2 85.5001 102.8 85.5001C103.6 85.5001 104.3 85.4001 105.1 85.3001V91.2001C103.8 91.4001 102.2 91.5001 100.7 91.5001C96.1 91.5001 92.1 90.4001 92.1 85.0001V68.7001H87.5V63.6001H92.1V55.3001H99.6V63.6001H105.1H109.6V61.5001C109.6 56.7001 112.6 53.1001 118.8 53.1001C120.1 53.1001 121.5 53.3001 122.8 53.3001V59.0001C121.9 58.9001 121 58.8001 120 58.8001C118 58.8001 117.1 59.7001 117.1 61.9001V63.5001H122.3V68.6001H117.1V91.1001H109.6V68.7001H105.1Z" fill="white"/>
<path d="M138.1 62.9001C146.7 62.9001 152.3 68.6001 152.3 77.4001C152.3 86.1001 146.7 91.9001 138.1 91.9001C129.5 91.9001 124 86.1001 124 77.4001C123.9 68.6001 129.5 62.9001 138.1 62.9001ZM138.1 86.2001C143.2 86.2001 144.8 81.8001 144.8 77.4001C144.8 73.0001 143.3 68.6001 138.1 68.6001C133 68.6001 131.5 73.0001 131.5 77.4001C131.5 81.8001 133 86.2001 138.1 86.2001Z" fill="white"/>
<path d="M155.6 63.6H162.8V68.7H162.9C164.3 65.2 168 62.8 171.6 62.8C172.1 62.8 172.8 62.9 173.2 63.1V70.1C172.5 69.9 171.4 69.8001 170.5 69.8001C165 69.8001 163.1 73.8 163.1 78.6V91H155.6V63.6Z" fill="white"/>
<path d="M194 87.6001H193.9C192.2 90.6001 189.1 91.9001 185.6 91.9001C177.3 91.9001 173.3 84.8001 173.3 77.2001C173.3 69.8001 177.4 62.9001 185.4 62.9001C188.6 62.9001 191.8 64.3001 193.5 67.0001H193.6V53.1001H201.1V91.1001H194V87.6001ZM187.4 68.6001C182.5 68.6001 180.8 72.9001 180.8 77.4001C180.8 81.7001 182.8 86.2001 187.4 86.2001C192.4 86.2001 193.9 81.8001 193.9 77.3001C193.9 72.8001 192.3 68.6001 187.4 68.6001Z" fill="white"/>
<path d="M211.1 82.2001C211.2 85.5001 213.9 86.8001 216.9 86.8001C219.1 86.8001 221.8 85.9001 221.8 83.3001C221.8 81.0001 218.7 80.2001 213.3 79.0001C209 78.0001 204.6 76.5001 204.6 71.7001C204.6 64.7001 210.6 62.9001 216.5 62.9001C222.5 62.9001 228 64.9001 228.6 71.7001H221.4C221.2 68.8001 219 68.0001 216.3 68.0001C214.6 68.0001 212.1 68.3001 212.1 70.6001C212.1 73.3001 216.3 73.7001 220.6 74.7001C225 75.7001 229.3 77.3001 229.3 82.4001C229.3 89.6001 223 92.0001 216.8 92.0001C210.4 92.0001 204.2 89.6001 203.9 82.3001H211.1V82.2001Z" fill="white"/>
<path d="M232.1 53.1001H239.6V67.4001H239.8C241.7 64.3001 245 62.8001 247.8 62.8001C255.8 62.8001 257.8 67.3001 257.8 74.1001V91.0001H250.3V75.6001C250.3 71.1001 249 68.8001 245.5 68.8001C241.4 68.8001 239.7 71.1001 239.7 76.7001V91.1001H232.2V53.1001H232.1Z" fill="white"/>
<path d="M269.7 60.7002H262.2V53.2002H269.7V60.7002ZM262.2 63.6002H269.7V91.1002H262.2V63.6002Z" fill="white"/>
<path d="M274.1 63.6H281.3V68.7H281.4C282.8 65.2 286.5 62.8 290.1 62.8C290.6 62.8 291.3 62.9 291.7 63.1V70.1C291 69.9 289.9 69.8001 289 69.8001C283.5 69.8001 281.6 73.8 281.6 78.6V91H274.1V63.6Z" fill="white"/>
<path d="M298.9 79.2001C299.1 84.0001 301.4 86.2001 305.6 86.2001C308.6 86.2001 311.1 84.3001 311.5 82.6001H318.1C316 89.1001 311.5 91.9001 305.3 91.9001C296.7 91.9001 291.3 85.9001 291.3 77.4001C291.3 69.1001 297 62.9001 305.3 62.9001C314.6 62.9001 319.1 70.8001 318.6 79.2001H298.9ZM311.1 74.4001C310.4 70.6001 308.8 68.5001 305.1 68.5001C300.3 68.5001 299 72.2001 298.8 74.4001H311.1Z" fill="white"/>
<path d="M414.4 5.6001H386.1V56.4001C386.1 64.4001 382 70.8001 371.9 70.8001C361.9 70.8001 357.7 64.3001 357.7 56.4001V5.6001H329.3C329.3 5.6001 329.3 58.8001 329.3 59.0001C329.3 81.7001 344.8 94.4001 371.8 94.4001C398.9 94.4001 414.3 81.8001 414.3 59.0001C414.4 58.8001 414.4 5.6001 414.4 5.6001Z" fill="white"/>
<path d="M421.5 5.6001H449.8V34.0001H478.2V5.6001H506.6V91.1001H478.2V62.6001H449.8V91.1001H421.5V5.6001Z" fill="white"/>
<path d="M35 5.80005H26.7V29.8C26.7 34.1 23.2 37.7001 18.9 37.7001C14.5999 37.7001 11.1 34.2 11.1 29.8V5.80005H2.69995C2.69995 5.80005 2.69995 30.7 2.69995 30.9C2.69995 38.5 9.89995 44.6 18.7999 44.6C27.6999 44.6 35 38.5 35 30.9V5.80005Z" fill="white"/>
<path d="M26.6 67.9H11V53H2.69995V91.1H11V76.2H26.6V91.1H35V53H26.6V67.9Z" fill="white"/>
</svg>
