<svg width="331" height="101" viewBox="0 0 331 101" fill="none" xmlns="http://www.w3.org/2000/svg">
<path d="M308.034 99.104V52.96H317.506V99.104H308.034Z" fill="white"/>
<path d="M306.135 84.5761H284.247V85.9201C284.247 88.6081 284.845 90.7414 286.039 92.3201C287.234 93.8561 288.898 94.6241 291.031 94.6241C294.103 94.6241 296.002 92.7254 296.727 88.9281H305.559C304.322 96.3094 299.287 100 290.455 100C285.293 100 281.346 98.5495 278.615 95.6481C275.927 92.7041 274.583 88.4374 274.583 82.8481C274.583 77.5148 275.991 73.3761 278.807 70.4321C281.623 67.4881 285.591 66.0161 290.711 66.0161C295.789 66.0161 299.629 67.4454 302.231 70.3041C304.834 73.1628 306.135 77.4294 306.135 83.1041V84.5761ZM290.775 71.3281C288.77 71.3281 287.17 72.0961 285.975 73.6321C284.823 75.1254 284.247 77.2374 284.247 79.9681H297.111C297.111 74.2081 294.999 71.3281 290.775 71.3281Z" fill="white"/>
<path d="M254.489 73.376V67.04H259.609V60.832L269.081 57.376V67.04H276.312V73.376H269.081V88.288C269.081 90.08 269.401 91.3173 270.041 92C270.681 92.6826 271.854 93.024 273.561 93.024C274.457 93.024 275.438 92.9386 276.505 92.768V98.976C275.31 99.1893 274.222 99.36 273.241 99.488C272.302 99.616 271.299 99.68 270.233 99.68C264.601 99.68 261.294 98.1013 260.312 94.944C259.843 93.6213 259.609 91.5733 259.609 88.8V73.376H254.489Z" fill="white"/>
<path d="M245.679 62.496V52.96H255.151V62.496H245.679ZM245.679 99.104V67.04H255.151V99.104H245.679Z" fill="white"/>
<path d="M211.644 99.1041V67.0401H221.116V72.0961C222.439 69.9627 223.911 68.4267 225.532 67.4881C227.153 66.5494 229.137 66.0801 231.484 66.0801C234.727 66.0801 237.308 66.9547 239.228 68.7041C241.148 70.4534 242.108 72.8427 242.108 75.8721V77.9841V99.1041H232.636V79.5841C232.636 77.6641 232.465 76.2347 232.124 75.2961C231.868 74.4001 231.271 73.6321 230.332 72.9921C229.436 72.3521 228.476 72.0321 227.452 72.0321C223.228 72.0321 221.116 75.2534 221.116 81.6961V99.1041H211.644Z" fill="white"/>
<path d="M157.234 99.104V67.04H166.706V71.904C168.114 69.9413 169.607 68.512 171.186 67.616C172.765 66.6773 174.578 66.208 176.626 66.208C179.143 66.208 181.277 66.784 183.026 67.936C184.775 69.088 185.991 70.752 186.674 72.928C188.85 68.5333 192.413 66.336 197.362 66.336C200.135 66.336 202.461 66.9973 204.338 68.32C205.618 69.2587 206.557 70.4533 207.154 71.904C207.751 73.3547 208.05 75.232 208.05 77.536V78.368V99.104H198.578V79.84V78.368C198.578 74.4427 196.871 72.48 193.458 72.48C191.581 72.48 190.109 73.2053 189.042 74.656C188.018 76.064 187.506 78.0267 187.506 80.544V82.08V99.104H178.034V79.968C178.034 78.7733 177.991 77.856 177.906 77.216C177.821 76.576 177.629 75.9147 177.33 75.232C177.031 74.5067 176.434 73.8667 175.538 73.312C174.642 72.7573 173.682 72.48 172.658 72.48C170.781 72.48 169.309 73.248 168.242 74.784C167.218 76.2773 166.706 78.368 166.706 81.056V99.104H157.234Z" fill="white"/>
<path d="M120.596 82.784C120.596 77.6214 122.175 73.4827 125.332 70.368C128.489 67.2534 132.713 65.696 138.004 65.696C143.295 65.696 147.497 67.2534 150.612 70.368C153.769 73.4401 155.348 77.5787 155.348 82.784C155.348 87.9467 153.769 92.0854 150.612 95.2C147.455 98.3147 143.252 99.8721 138.004 99.8721C132.713 99.8721 128.489 98.3361 125.332 95.2641C122.175 92.1921 120.596 88.0321 120.596 82.784ZM138.004 71.264C133.097 71.264 130.644 75.104 130.644 82.784C130.644 90.4214 133.097 94.2401 138.004 94.2401C142.825 94.2401 145.236 90.4214 145.236 82.784C145.236 75.104 142.825 71.264 138.004 71.264Z" fill="white"/>
<path d="M120.488 67.488H110.44C110.44 65.312 109.736 63.5413 108.328 62.176C106.92 60.8107 105.149 60.128 103.016 60.128C99.5173 60.128 96.808 61.6213 94.888 64.608C92.968 67.552 92.008 71.7333 92.008 77.152C92.008 82.0587 92.904 85.8347 94.696 88.48C96.488 91.1253 99.048 92.448 102.376 92.448C104.979 92.448 107.005 91.744 108.456 90.336C109.949 88.8853 110.696 86.8587 110.696 84.256H120.744C120.744 85.7067 120.68 86.7307 120.552 87.328C120.467 87.8827 120.189 88.736 119.72 89.888C119.208 91.424 118.568 92.7253 117.8 93.792C117.075 94.8587 116.179 95.7973 115.112 96.608C113.789 97.632 111.933 98.464 109.544 99.104C107.155 99.744 104.723 100.064 102.248 100.064C95.5493 100.064 90.3227 98.0373 86.568 93.984C82.856 89.888 81 84.1707 81 76.832C81 69.1093 82.92 63.0507 86.76 58.656C90.6427 54.2187 95.9973 52 102.824 52C108.328 52 112.637 53.344 115.752 56.032C118.909 58.6773 120.488 62.496 120.488 67.488Z" fill="white"/>
<path d="M312.661 34.4559V27.6719H330.517V34.4559H312.661Z" fill="white"/>
<path d="M287.052 47V0.855957H296.396V47H287.052ZM296.716 28.376L306.956 14.936H317.26L305.804 28.312L318.092 47H307.532L296.716 28.376Z" fill="white"/>
<path d="M267.517 46.9999V14.9359H276.989V19.0959C278.184 17.3466 279.378 16.1092 280.573 15.3839C281.81 14.6586 283.282 14.2959 284.989 14.2959C285.8 14.2959 286.781 14.4452 287.933 14.7439V22.4239C287.293 22.3386 286.717 22.2746 286.205 22.2319C285.736 22.1466 285.117 22.1039 284.349 22.1039C281.746 22.1039 279.869 22.7012 278.717 23.8959C277.565 25.0906 276.989 27.0959 276.989 29.9119V46.9999H267.517Z" fill="white"/>
<path d="M255.478 27.0321V23.5761C255.478 22.1254 255.073 21.0161 254.262 20.2481C253.494 19.4374 252.406 19.0321 250.998 19.0321C249.334 19.0321 248.033 19.4587 247.094 20.3121C246.198 21.1227 245.75 22.2747 245.75 23.7681H236.662C236.662 17.2401 241.313 13.9761 250.614 13.9761C251.937 13.9761 252.918 14.0187 253.558 14.1041C254.241 14.1467 255.286 14.2961 256.694 14.5521C258.145 14.8081 259.51 15.4054 260.79 16.3441C262.07 17.2401 262.987 18.2854 263.542 19.4801C264.097 20.6321 264.374 22.3387 264.374 24.6001V43.6081L264.63 47.0001H254.966V43.0321C252.491 46.1467 249.505 47.7041 246.006 47.7041C242.635 47.7041 239.969 46.8081 238.006 45.0161C236.043 43.2241 235.062 40.7921 235.062 37.7201C235.062 35.9281 235.51 34.2854 236.406 32.7921C237.302 31.2561 238.518 30.0827 240.054 29.2721C241.249 28.6321 242.678 28.1201 244.342 27.7361C246.049 27.3094 247.777 27.0961 249.526 27.0961L253.366 27.0321H255.478ZM255.542 33.8161V31.5761L253.366 31.5121C247.265 31.5121 244.214 33.4747 244.214 37.4001C244.214 38.7654 244.662 39.8747 245.558 40.7281C246.454 41.5814 247.649 42.0081 249.142 42.0081C253.409 42.0081 255.542 39.2774 255.542 33.8161Z" fill="white"/>
<path d="M177.264 47V0.855957H193.648L205.104 35.032L217.648 0.855957H233.2V47H223.408V9.94395L209.52 47H198.768L186.096 10.072V47H177.264Z" fill="white"/>
<path d="M142.849 47V0.855957H152.321V19.8C153.644 17.752 155.116 16.28 156.737 15.384C158.401 14.4453 160.407 13.976 162.753 13.976C165.271 13.976 167.383 14.4666 169.089 15.448C170.796 16.4293 171.927 17.7946 172.481 19.544C173.079 21.2506 173.377 23.3626 173.377 25.88V47H163.969V27.48C163.969 25.688 163.82 24.3013 163.521 23.32C163.223 22.296 162.625 21.4853 161.729 20.888C160.833 20.248 159.852 19.928 158.785 19.928C154.476 19.928 152.321 23.1493 152.321 29.592V47H142.849Z" fill="white"/>
<path d="M141.569 26.1999H132.737C132.737 24.4079 132.203 22.9786 131.137 21.9119C130.113 20.8026 128.747 20.2479 127.041 20.2479C124.865 20.2479 123.137 21.1866 121.857 23.0639C120.619 24.8986 120.001 27.4586 120.001 30.7439C120.001 37.9546 122.326 41.5599 126.977 41.5599C130.518 41.5599 132.481 39.3199 132.865 34.8399H141.697C141.697 39.0213 140.353 42.2639 137.665 44.5679C135.019 46.8293 131.435 47.9599 126.913 47.9599C121.537 47.9599 117.419 46.5093 114.561 43.6079C111.745 40.6639 110.337 36.4186 110.337 30.8719C110.337 25.4106 111.723 21.2079 114.497 18.2639C117.313 15.2773 121.345 13.7839 126.593 13.7839C135.851 13.7839 140.843 17.9226 141.569 26.1999Z" fill="white"/>
<path d="M90.2415 21.272V14.936H95.3615V8.72797L104.833 5.27197V14.936H112.065V21.272H104.833V36.184C104.833 37.976 105.153 39.2133 105.793 39.896C106.433 40.5786 107.607 40.92 109.313 40.92C110.209 40.92 111.191 40.8346 112.257 40.664V46.872C111.063 47.0853 109.975 47.256 108.993 47.384C108.055 47.512 107.052 47.576 105.985 47.576C100.353 47.576 97.0468 45.9973 96.0655 42.84C95.5961 41.5173 95.3615 39.4693 95.3615 36.696V21.272H90.2415Z" fill="white"/>
<path d="M82.4905 27.0321V23.5761C82.4905 22.1254 82.0851 21.0161 81.2745 20.2481C80.5065 19.4374 79.4185 19.0321 78.0105 19.0321C76.3465 19.0321 75.0451 19.4587 74.1065 20.3121C73.2105 21.1227 72.7625 22.2747 72.7625 23.7681H63.6745C63.6745 17.2401 68.3251 13.9761 77.6265 13.9761C78.9491 13.9761 79.9305 14.0187 80.5705 14.1041C81.2531 14.1467 82.2985 14.2961 83.7065 14.5521C85.1571 14.8081 86.5225 15.4054 87.8025 16.3441C89.0825 17.2401 89.9998 18.2854 90.5545 19.4801C91.1091 20.6321 91.3865 22.3387 91.3865 24.6001V43.6081L91.6425 47.0001H81.9785V43.0321C79.5038 46.1467 76.5171 47.7041 73.0185 47.7041C69.6478 47.7041 66.9811 46.8081 65.0185 45.0161C63.0558 43.2241 62.0745 40.7921 62.0745 37.7201C62.0745 35.9281 62.5225 34.2854 63.4185 32.7921C64.3145 31.2561 65.5305 30.0827 67.0665 29.2721C68.2611 28.6321 69.6905 28.1201 71.3545 27.7361C73.0611 27.3094 74.7891 27.0961 76.5385 27.0961L80.3785 27.0321H82.4905ZM82.5545 33.8161V31.5761L80.3785 31.5121C74.2771 31.5121 71.2265 33.4747 71.2265 37.4001C71.2265 38.7654 71.6745 39.8747 72.5705 40.7281C73.4665 41.5814 74.6611 42.0081 76.1545 42.0081C80.4211 42.0081 82.5545 39.2774 82.5545 33.8161Z" fill="white"/>
<path d="M0.749023 0.855957H10.989L18.669 35.16L28.077 0.855957H41.069L50.541 35.16L58.349 0.855957H67.501L57.005 47H44.077L34.093 12.504L24.621 47H11.309L0.749023 0.855957Z" fill="white"/>
</svg>
